<?xml version="1.0" encoding="utf-8" standalone="no"?>
<!DOCTYPE svg PUBLIC "-//W3C//DTD SVG 1.1//EN"
  "http://www.w3.org/Graphics/SVG/1.1/DTD/svg11.dtd">
<svg xmlns:xlink="http://www.w3.org/1999/xlink" width="640.981221pt" height="371.277547pt" viewBox="0 0 640.981221 371.277547" xmlns="http://www.w3.org/2000/svg" version="1.1">
 <metadata>
  <rdf:RDF xmlns:dc="http://purl.org/dc/elements/1.1/" xmlns:cc="http://creativecommons.org/ns#" xmlns:rdf="http://www.w3.org/1999/02/22-rdf-syntax-ns#">
   <cc:Work>
    <dc:type rdf:resource="http://purl.org/dc/dcmitype/StillImage"/>
    <dc:date>2026-06-02T21:05:53.979932</dc:date>
    <dc:format>image/svg+xml</dc:format>
    <dc:creator>
     <cc:Agent>
      <dc:title>Matplotlib v3.7.2, https://matplotlib.org/</dc:title>
     </cc:Agent>
    </dc:creator>
   </cc:Work>
  </rdf:RDF>
 </metadata>
 <defs>
  <style type="text/css">*{stroke-linejoin: round; stroke-linecap: butt}</style>
 </defs>
 <g id="figure_1">
  <g id="patch_1">
   <path d="M 0 371.277547 
L 640.981221 371.277547 
L 640.981221 0 
L 0 0 
z
" style="fill: #fafafa"/>
  </g>
  <g id="axes_1">
   <g id="patch_2">
    <path d="M 131.723281 300.117812 
L 528.951138 300.117812 
L 528.951138 31.837812 
L 131.723281 31.837812 
z
" style="fill: #fafafa"/>
   </g>
   <g id="matplotlib.axis_1">
    <g id="xtick_1">
     <g id="line2d_1">
      <path d="M 131.723281 300.117812 
L 131.723281 31.837812 
" clip-path="url(#p5a41b2b87e)" style="fill: none; stroke: #e0e0e0; stroke-width: 0.6; stroke-linecap: square"/>
     </g>
     <g id="line2d_2">
      <defs>
       <path id="m32a6b7f354" d="M 0 0 
L 0 3.5 
" style="stroke: #444444; stroke-width: 0.8"/>
      </defs>
      <g>
       <use xlink:href="#m32a6b7f354" x="131.723281" y="300.117812" style="fill: #444444; stroke: #444444; stroke-width: 0.8"/>
      </g>
     </g>
     <g id="text_1">
      <!-- 0 -->
      <g style="fill: #444444" transform="translate(128.223906 315.476094) scale(0.11 -0.11)">
       <defs>
        <path id="DejaVuSans-30" d="M 2034 4250 
Q 1547 4250 1301 3770 
Q 1056 3291 1056 2328 
Q 1056 1369 1301 889 
Q 1547 409 2034 409 
Q 2525 409 2770 889 
Q 3016 1369 3016 2328 
Q 3016 3291 2770 3770 
Q 2525 4250 2034 4250 
z
M 2034 4750 
Q 2819 4750 3233 4129 
Q 3647 3509 3647 2328 
Q 3647 1150 3233 529 
Q 2819 -91 2034 -91 
Q 1250 -91 836 529 
Q 422 1150 422 2328 
Q 422 3509 836 4129 
Q 1250 4750 2034 4750 
z
" transform="scale(0.015625)"/>
       </defs>
       <use xlink:href="#DejaVuSans-30"/>
      </g>
     </g>
    </g>
    <g id="xtick_2">
     <g id="line2d_3">
      <path d="M 187.140114 300.117812 
L 187.140114 31.837812 
" clip-path="url(#p5a41b2b87e)" style="fill: none; stroke: #e0e0e0; stroke-width: 0.6; stroke-linecap: square"/>
     </g>
     <g id="line2d_4">
      <g>
       <use xlink:href="#m32a6b7f354" x="187.140114" y="300.117812" style="fill: #444444; stroke: #444444; stroke-width: 0.8"/>
      </g>
     </g>
     <g id="text_2">
      <!-- 5 -->
      <g style="fill: #444444" transform="translate(183.640739 315.476094) scale(0.11 -0.11)">
       <defs>
        <path id="DejaVuSans-35" d="M 691 4666 
L 3169 4666 
L 3169 4134 
L 1269 4134 
L 1269 2991 
Q 1406 3038 1543 3061 
Q 1681 3084 1819 3084 
Q 2600 3084 3056 2656 
Q 3513 2228 3513 1497 
Q 3513 744 3044 326 
Q 2575 -91 1722 -91 
Q 1428 -91 1123 -41 
Q 819 9 494 109 
L 494 744 
Q 775 591 1075 516 
Q 1375 441 1709 441 
Q 2250 441 2565 725 
Q 2881 1009 2881 1497 
Q 2881 1984 2565 2268 
Q 2250 2553 1709 2553 
Q 1456 2553 1204 2497 
Q 953 2441 691 2322 
L 691 4666 
z
" transform="scale(0.015625)"/>
       </defs>
       <use xlink:href="#DejaVuSans-35"/>
      </g>
     </g>
    </g>
    <g id="xtick_3">
     <g id="line2d_5">
      <path d="M 242.556947 300.117812 
L 242.556947 31.837812 
" clip-path="url(#p5a41b2b87e)" style="fill: none; stroke: #e0e0e0; stroke-width: 0.6; stroke-linecap: square"/>
     </g>
     <g id="line2d_6">
      <g>
       <use xlink:href="#m32a6b7f354" x="242.556947" y="300.117812" style="fill: #444444; stroke: #444444; stroke-width: 0.8"/>
      </g>
     </g>
     <g id="text_3">
      <!-- 10 -->
      <g style="fill: #444444" transform="translate(235.558197 315.476094) scale(0.11 -0.11)">
       <defs>
        <path id="DejaVuSans-31" d="M 794 531 
L 1825 531 
L 1825 4091 
L 703 3866 
L 703 4441 
L 1819 4666 
L 2450 4666 
L 2450 531 
L 3481 531 
L 3481 0 
L 794 0 
L 794 531 
z
" transform="scale(0.015625)"/>
       </defs>
       <use xlink:href="#DejaVuSans-31"/>
       <use xlink:href="#DejaVuSans-30" x="63.623047"/>
      </g>
     </g>
    </g>
    <g id="xtick_4">
     <g id="line2d_7">
      <path d="M 297.973779 300.117812 
L 297.973779 31.837812 
" clip-path="url(#p5a41b2b87e)" style="fill: none; stroke: #e0e0e0; stroke-width: 0.6; stroke-linecap: square"/>
     </g>
     <g id="line2d_8">
      <g>
       <use xlink:href="#m32a6b7f354" x="297.973779" y="300.117812" style="fill: #444444; stroke: #444444; stroke-width: 0.8"/>
      </g>
     </g>
     <g id="text_4">
      <!-- 15 -->
      <g style="fill: #444444" transform="translate(290.975029 315.476094) scale(0.11 -0.11)">
       <use xlink:href="#DejaVuSans-31"/>
       <use xlink:href="#DejaVuSans-35" x="63.623047"/>
      </g>
     </g>
    </g>
    <g id="xtick_5">
     <g id="line2d_9">
      <path d="M 353.390612 300.117812 
L 353.390612 31.837812 
" clip-path="url(#p5a41b2b87e)" style="fill: none; stroke: #e0e0e0; stroke-width: 0.6; stroke-linecap: square"/>
     </g>
     <g id="line2d_10">
      <g>
       <use xlink:href="#m32a6b7f354" x="353.390612" y="300.117812" style="fill: #444444; stroke: #444444; stroke-width: 0.8"/>
      </g>
     </g>
     <g id="text_5">
      <!-- 20 -->
      <g style="fill: #444444" transform="translate(346.391862 315.476094) scale(0.11 -0.11)">
       <defs>
        <path id="DejaVuSans-32" d="M 1228 531 
L 3431 531 
L 3431 0 
L 469 0 
L 469 531 
Q 828 903 1448 1529 
Q 2069 2156 2228 2338 
Q 2531 2678 2651 2914 
Q 2772 3150 2772 3378 
Q 2772 3750 2511 3984 
Q 2250 4219 1831 4219 
Q 1534 4219 1204 4116 
Q 875 4013 500 3803 
L 500 4441 
Q 881 4594 1212 4672 
Q 1544 4750 1819 4750 
Q 2544 4750 2975 4387 
Q 3406 4025 3406 3419 
Q 3406 3131 3298 2873 
Q 3191 2616 2906 2266 
Q 2828 2175 2409 1742 
Q 1991 1309 1228 531 
z
" transform="scale(0.015625)"/>
       </defs>
       <use xlink:href="#DejaVuSans-32"/>
       <use xlink:href="#DejaVuSans-30" x="63.623047"/>
      </g>
     </g>
    </g>
    <g id="xtick_6">
     <g id="line2d_11">
      <path d="M 408.807445 300.117812 
L 408.807445 31.837812 
" clip-path="url(#p5a41b2b87e)" style="fill: none; stroke: #e0e0e0; stroke-width: 0.6; stroke-linecap: square"/>
     </g>
     <g id="line2d_12">
      <g>
       <use xlink:href="#m32a6b7f354" x="408.807445" y="300.117812" style="fill: #444444; stroke: #444444; stroke-width: 0.8"/>
      </g>
     </g>
     <g id="text_6">
      <!-- 25 -->
      <g style="fill: #444444" transform="translate(401.808695 315.476094) scale(0.11 -0.11)">
       <use xlink:href="#DejaVuSans-32"/>
       <use xlink:href="#DejaVuSans-35" x="63.623047"/>
      </g>
     </g>
    </g>
    <g id="xtick_7">
     <g id="line2d_13">
      <path d="M 464.224278 300.117812 
L 464.224278 31.837812 
" clip-path="url(#p5a41b2b87e)" style="fill: none; stroke: #e0e0e0; stroke-width: 0.6; stroke-linecap: square"/>
     </g>
     <g id="line2d_14">
      <g>
       <use xlink:href="#m32a6b7f354" x="464.224278" y="300.117812" style="fill: #444444; stroke: #444444; stroke-width: 0.8"/>
      </g>
     </g>
     <g id="text_7">
      <!-- 30 -->
      <g style="fill: #444444" transform="translate(457.225528 315.476094) scale(0.11 -0.11)">
       <defs>
        <path id="DejaVuSans-33" d="M 2597 2516 
Q 3050 2419 3304 2112 
Q 3559 1806 3559 1356 
Q 3559 666 3084 287 
Q 2609 -91 1734 -91 
Q 1441 -91 1130 -33 
Q 819 25 488 141 
L 488 750 
Q 750 597 1062 519 
Q 1375 441 1716 441 
Q 2309 441 2620 675 
Q 2931 909 2931 1356 
Q 2931 1769 2642 2001 
Q 2353 2234 1838 2234 
L 1294 2234 
L 1294 2753 
L 1863 2753 
Q 2328 2753 2575 2939 
Q 2822 3125 2822 3475 
Q 2822 3834 2567 4026 
Q 2313 4219 1838 4219 
Q 1578 4219 1281 4162 
Q 984 4106 628 3988 
L 628 4550 
Q 988 4650 1302 4700 
Q 1616 4750 1894 4750 
Q 2613 4750 3031 4423 
Q 3450 4097 3450 3541 
Q 3450 3153 3228 2886 
Q 3006 2619 2597 2516 
z
" transform="scale(0.015625)"/>
       </defs>
       <use xlink:href="#DejaVuSans-33"/>
       <use xlink:href="#DejaVuSans-30" x="63.623047"/>
      </g>
     </g>
    </g>
    <g id="xtick_8">
     <g id="line2d_15">
      <path d="M 519.64111 300.117812 
L 519.64111 31.837812 
" clip-path="url(#p5a41b2b87e)" style="fill: none; stroke: #e0e0e0; stroke-width: 0.6; stroke-linecap: square"/>
     </g>
     <g id="line2d_16">
      <g>
       <use xlink:href="#m32a6b7f354" x="519.64111" y="300.117812" style="fill: #444444; stroke: #444444; stroke-width: 0.8"/>
      </g>
     </g>
     <g id="text_8">
      <!-- 35 -->
      <g style="fill: #444444" transform="translate(512.64236 315.476094) scale(0.11 -0.11)">
       <use xlink:href="#DejaVuSans-33"/>
       <use xlink:href="#DejaVuSans-35" x="63.623047"/>
      </g>
     </g>
    </g>
    <g id="text_9">
     <!-- Misaligned SAE latents (LLM judge) -->
     <g transform="translate(233.601663 336.122031) scale(0.11 -0.11)">
      <defs>
       <path id="DejaVuSans-4d" d="M 628 4666 
L 1569 4666 
L 2759 1491 
L 3956 4666 
L 4897 4666 
L 4897 0 
L 4281 0 
L 4281 4097 
L 3078 897 
L 2444 897 
L 1241 4097 
L 1241 0 
L 628 0 
L 628 4666 
z
" transform="scale(0.015625)"/>
       <path id="DejaVuSans-69" d="M 603 3500 
L 1178 3500 
L 1178 0 
L 603 0 
L 603 3500 
z
M 603 4863 
L 1178 4863 
L 1178 4134 
L 603 4134 
L 603 4863 
z
" transform="scale(0.015625)"/>
       <path id="DejaVuSans-73" d="M 2834 3397 
L 2834 2853 
Q 2591 2978 2328 3040 
Q 2066 3103 1784 3103 
Q 1356 3103 1142 2972 
Q 928 2841 928 2578 
Q 928 2378 1081 2264 
Q 1234 2150 1697 2047 
L 1894 2003 
Q 2506 1872 2764 1633 
Q 3022 1394 3022 966 
Q 3022 478 2636 193 
Q 2250 -91 1575 -91 
Q 1294 -91 989 -36 
Q 684 19 347 128 
L 347 722 
Q 666 556 975 473 
Q 1284 391 1588 391 
Q 1994 391 2212 530 
Q 2431 669 2431 922 
Q 2431 1156 2273 1281 
Q 2116 1406 1581 1522 
L 1381 1569 
Q 847 1681 609 1914 
Q 372 2147 372 2553 
Q 372 3047 722 3315 
Q 1072 3584 1716 3584 
Q 2034 3584 2315 3537 
Q 2597 3491 2834 3397 
z
" transform="scale(0.015625)"/>
       <path id="DejaVuSans-61" d="M 2194 1759 
Q 1497 1759 1228 1600 
Q 959 1441 959 1056 
Q 959 750 1161 570 
Q 1363 391 1709 391 
Q 2188 391 2477 730 
Q 2766 1069 2766 1631 
L 2766 1759 
L 2194 1759 
z
M 3341 1997 
L 3341 0 
L 2766 0 
L 2766 531 
Q 2569 213 2275 61 
Q 1981 -91 1556 -91 
Q 1019 -91 701 211 
Q 384 513 384 1019 
Q 384 1609 779 1909 
Q 1175 2209 1959 2209 
L 2766 2209 
L 2766 2266 
Q 2766 2663 2505 2880 
Q 2244 3097 1772 3097 
Q 1472 3097 1187 3025 
Q 903 2953 641 2809 
L 641 3341 
Q 956 3463 1253 3523 
Q 1550 3584 1831 3584 
Q 2591 3584 2966 3190 
Q 3341 2797 3341 1997 
z
" transform="scale(0.015625)"/>
       <path id="DejaVuSans-6c" d="M 603 4863 
L 1178 4863 
L 1178 0 
L 603 0 
L 603 4863 
z
" transform="scale(0.015625)"/>
       <path id="DejaVuSans-67" d="M 2906 1791 
Q 2906 2416 2648 2759 
Q 2391 3103 1925 3103 
Q 1463 3103 1205 2759 
Q 947 2416 947 1791 
Q 947 1169 1205 825 
Q 1463 481 1925 481 
Q 2391 481 2648 825 
Q 2906 1169 2906 1791 
z
M 3481 434 
Q 3481 -459 3084 -895 
Q 2688 -1331 1869 -1331 
Q 1566 -1331 1297 -1286 
Q 1028 -1241 775 -1147 
L 775 -588 
Q 1028 -725 1275 -790 
Q 1522 -856 1778 -856 
Q 2344 -856 2625 -561 
Q 2906 -266 2906 331 
L 2906 616 
Q 2728 306 2450 153 
Q 2172 0 1784 0 
Q 1141 0 747 490 
Q 353 981 353 1791 
Q 353 2603 747 3093 
Q 1141 3584 1784 3584 
Q 2172 3584 2450 3431 
Q 2728 3278 2906 2969 
L 2906 3500 
L 3481 3500 
L 3481 434 
z
" transform="scale(0.015625)"/>
       <path id="DejaVuSans-6e" d="M 3513 2113 
L 3513 0 
L 2938 0 
L 2938 2094 
Q 2938 2591 2744 2837 
Q 2550 3084 2163 3084 
Q 1697 3084 1428 2787 
Q 1159 2491 1159 1978 
L 1159 0 
L 581 0 
L 581 3500 
L 1159 3500 
L 1159 2956 
Q 1366 3272 1645 3428 
Q 1925 3584 2291 3584 
Q 2894 3584 3203 3211 
Q 3513 2838 3513 2113 
z
" transform="scale(0.015625)"/>
       <path id="DejaVuSans-65" d="M 3597 1894 
L 3597 1613 
L 953 1613 
Q 991 1019 1311 708 
Q 1631 397 2203 397 
Q 2534 397 2845 478 
Q 3156 559 3463 722 
L 3463 178 
Q 3153 47 2828 -22 
Q 2503 -91 2169 -91 
Q 1331 -91 842 396 
Q 353 884 353 1716 
Q 353 2575 817 3079 
Q 1281 3584 2069 3584 
Q 2775 3584 3186 3129 
Q 3597 2675 3597 1894 
z
M 3022 2063 
Q 3016 2534 2758 2815 
Q 2500 3097 2075 3097 
Q 1594 3097 1305 2825 
Q 1016 2553 972 2059 
L 3022 2063 
z
" transform="scale(0.015625)"/>
       <path id="DejaVuSans-64" d="M 2906 2969 
L 2906 4863 
L 3481 4863 
L 3481 0 
L 2906 0 
L 2906 525 
Q 2725 213 2448 61 
Q 2172 -91 1784 -91 
Q 1150 -91 751 415 
Q 353 922 353 1747 
Q 353 2572 751 3078 
Q 1150 3584 1784 3584 
Q 2172 3584 2448 3432 
Q 2725 3281 2906 2969 
z
M 947 1747 
Q 947 1113 1208 752 
Q 1469 391 1925 391 
Q 2381 391 2643 752 
Q 2906 1113 2906 1747 
Q 2906 2381 2643 2742 
Q 2381 3103 1925 3103 
Q 1469 3103 1208 2742 
Q 947 2381 947 1747 
z
" transform="scale(0.015625)"/>
       <path id="DejaVuSans-20" transform="scale(0.015625)"/>
       <path id="DejaVuSans-53" d="M 3425 4513 
L 3425 3897 
Q 3066 4069 2747 4153 
Q 2428 4238 2131 4238 
Q 1616 4238 1336 4038 
Q 1056 3838 1056 3469 
Q 1056 3159 1242 3001 
Q 1428 2844 1947 2747 
L 2328 2669 
Q 3034 2534 3370 2195 
Q 3706 1856 3706 1288 
Q 3706 609 3251 259 
Q 2797 -91 1919 -91 
Q 1588 -91 1214 -16 
Q 841 59 441 206 
L 441 856 
Q 825 641 1194 531 
Q 1563 422 1919 422 
Q 2459 422 2753 634 
Q 3047 847 3047 1241 
Q 3047 1584 2836 1778 
Q 2625 1972 2144 2069 
L 1759 2144 
Q 1053 2284 737 2584 
Q 422 2884 422 3419 
Q 422 4038 858 4394 
Q 1294 4750 2059 4750 
Q 2388 4750 2728 4690 
Q 3069 4631 3425 4513 
z
" transform="scale(0.015625)"/>
       <path id="DejaVuSans-41" d="M 2188 4044 
L 1331 1722 
L 3047 1722 
L 2188 4044 
z
M 1831 4666 
L 2547 4666 
L 4325 0 
L 3669 0 
L 3244 1197 
L 1141 1197 
L 716 0 
L 50 0 
L 1831 4666 
z
" transform="scale(0.015625)"/>
       <path id="DejaVuSans-45" d="M 628 4666 
L 3578 4666 
L 3578 4134 
L 1259 4134 
L 1259 2753 
L 3481 2753 
L 3481 2222 
L 1259 2222 
L 1259 531 
L 3634 531 
L 3634 0 
L 628 0 
L 628 4666 
z
" transform="scale(0.015625)"/>
       <path id="DejaVuSans-74" d="M 1172 4494 
L 1172 3500 
L 2356 3500 
L 2356 3053 
L 1172 3053 
L 1172 1153 
Q 1172 725 1289 603 
Q 1406 481 1766 481 
L 2356 481 
L 2356 0 
L 1766 0 
Q 1100 0 847 248 
Q 594 497 594 1153 
L 594 3053 
L 172 3053 
L 172 3500 
L 594 3500 
L 594 4494 
L 1172 4494 
z
" transform="scale(0.015625)"/>
       <path id="DejaVuSans-28" d="M 1984 4856 
Q 1566 4138 1362 3434 
Q 1159 2731 1159 2009 
Q 1159 1288 1364 580 
Q 1569 -128 1984 -844 
L 1484 -844 
Q 1016 -109 783 600 
Q 550 1309 550 2009 
Q 550 2706 781 3412 
Q 1013 4119 1484 4856 
L 1984 4856 
z
" transform="scale(0.015625)"/>
       <path id="DejaVuSans-4c" d="M 628 4666 
L 1259 4666 
L 1259 531 
L 3531 531 
L 3531 0 
L 628 0 
L 628 4666 
z
" transform="scale(0.015625)"/>
       <path id="DejaVuSans-6a" d="M 603 3500 
L 1178 3500 
L 1178 -63 
Q 1178 -731 923 -1031 
Q 669 -1331 103 -1331 
L -116 -1331 
L -116 -844 
L 38 -844 
Q 366 -844 484 -692 
Q 603 -541 603 -63 
L 603 3500 
z
M 603 4863 
L 1178 4863 
L 1178 4134 
L 603 4134 
L 603 4863 
z
" transform="scale(0.015625)"/>
       <path id="DejaVuSans-75" d="M 544 1381 
L 544 3500 
L 1119 3500 
L 1119 1403 
Q 1119 906 1312 657 
Q 1506 409 1894 409 
Q 2359 409 2629 706 
Q 2900 1003 2900 1516 
L 2900 3500 
L 3475 3500 
L 3475 0 
L 2900 0 
L 2900 538 
Q 2691 219 2414 64 
Q 2138 -91 1772 -91 
Q 1169 -91 856 284 
Q 544 659 544 1381 
z
M 1991 3584 
L 1991 3584 
z
" transform="scale(0.015625)"/>
       <path id="DejaVuSans-29" d="M 513 4856 
L 1013 4856 
Q 1481 4119 1714 3412 
Q 1947 2706 1947 2009 
Q 1947 1309 1714 600 
Q 1481 -109 1013 -844 
L 513 -844 
Q 928 -128 1133 580 
Q 1338 1288 1338 2009 
Q 1338 2731 1133 3434 
Q 928 4138 513 4856 
z
" transform="scale(0.015625)"/>
      </defs>
      <use xlink:href="#DejaVuSans-4d"/>
      <use xlink:href="#DejaVuSans-69" x="86.279297"/>
      <use xlink:href="#DejaVuSans-73" x="114.0625"/>
      <use xlink:href="#DejaVuSans-61" x="166.162109"/>
      <use xlink:href="#DejaVuSans-6c" x="227.441406"/>
      <use xlink:href="#DejaVuSans-69" x="255.224609"/>
      <use xlink:href="#DejaVuSans-67" x="283.007812"/>
      <use xlink:href="#DejaVuSans-6e" x="346.484375"/>
      <use xlink:href="#DejaVuSans-65" x="409.863281"/>
      <use xlink:href="#DejaVuSans-64" x="471.386719"/>
      <use xlink:href="#DejaVuSans-20" x="534.863281"/>
      <use xlink:href="#DejaVuSans-53" x="566.650391"/>
      <use xlink:href="#DejaVuSans-41" x="632.001953"/>
      <use xlink:href="#DejaVuSans-45" x="700.410156"/>
      <use xlink:href="#DejaVuSans-20" x="763.59375"/>
      <use xlink:href="#DejaVuSans-6c" x="795.380859"/>
      <use xlink:href="#DejaVuSans-61" x="823.164062"/>
      <use xlink:href="#DejaVuSans-74" x="884.443359"/>
      <use xlink:href="#DejaVuSans-65" x="923.652344"/>
      <use xlink:href="#DejaVuSans-6e" x="985.175781"/>
      <use xlink:href="#DejaVuSans-74" x="1048.554688"/>
      <use xlink:href="#DejaVuSans-73" x="1087.763672"/>
      <use xlink:href="#DejaVuSans-20" x="1139.863281"/>
      <use xlink:href="#DejaVuSans-28" x="1171.650391"/>
      <use xlink:href="#DejaVuSans-4c" x="1210.664062"/>
      <use xlink:href="#DejaVuSans-4c" x="1266.376953"/>
      <use xlink:href="#DejaVuSans-4d" x="1322.089844"/>
      <use xlink:href="#DejaVuSans-20" x="1408.369141"/>
      <use xlink:href="#DejaVuSans-6a" x="1440.15625"/>
      <use xlink:href="#DejaVuSans-75" x="1467.939453"/>
      <use xlink:href="#DejaVuSans-64" x="1531.318359"/>
      <use xlink:href="#DejaVuSans-67" x="1594.794922"/>
      <use xlink:href="#DejaVuSans-65" x="1658.271484"/>
      <use xlink:href="#DejaVuSans-29" x="1719.794922"/>
     </g>
    </g>
   </g>
   <g id="matplotlib.axis_2">
    <g id="ytick_1">
     <g id="line2d_17"/>
     <g id="text_10">
      <!-- Bad medical advice -->
      <g transform="translate(17.985156 64.576473) scale(0.11 -0.11)">
       <defs>
        <path id="DejaVuSans-42" d="M 1259 2228 
L 1259 519 
L 2272 519 
Q 2781 519 3026 730 
Q 3272 941 3272 1375 
Q 3272 1813 3026 2020 
Q 2781 2228 2272 2228 
L 1259 2228 
z
M 1259 4147 
L 1259 2741 
L 2194 2741 
Q 2656 2741 2882 2914 
Q 3109 3088 3109 3444 
Q 3109 3797 2882 3972 
Q 2656 4147 2194 4147 
L 1259 4147 
z
M 628 4666 
L 2241 4666 
Q 2963 4666 3353 4366 
Q 3744 4066 3744 3513 
Q 3744 3084 3544 2831 
Q 3344 2578 2956 2516 
Q 3422 2416 3680 2098 
Q 3938 1781 3938 1306 
Q 3938 681 3513 340 
Q 3088 0 2303 0 
L 628 0 
L 628 4666 
z
" transform="scale(0.015625)"/>
        <path id="DejaVuSans-6d" d="M 3328 2828 
Q 3544 3216 3844 3400 
Q 4144 3584 4550 3584 
Q 5097 3584 5394 3201 
Q 5691 2819 5691 2113 
L 5691 0 
L 5113 0 
L 5113 2094 
Q 5113 2597 4934 2840 
Q 4756 3084 4391 3084 
Q 3944 3084 3684 2787 
Q 3425 2491 3425 1978 
L 3425 0 
L 2847 0 
L 2847 2094 
Q 2847 2600 2669 2842 
Q 2491 3084 2119 3084 
Q 1678 3084 1418 2786 
Q 1159 2488 1159 1978 
L 1159 0 
L 581 0 
L 581 3500 
L 1159 3500 
L 1159 2956 
Q 1356 3278 1631 3431 
Q 1906 3584 2284 3584 
Q 2666 3584 2933 3390 
Q 3200 3197 3328 2828 
z
" transform="scale(0.015625)"/>
        <path id="DejaVuSans-63" d="M 3122 3366 
L 3122 2828 
Q 2878 2963 2633 3030 
Q 2388 3097 2138 3097 
Q 1578 3097 1268 2742 
Q 959 2388 959 1747 
Q 959 1106 1268 751 
Q 1578 397 2138 397 
Q 2388 397 2633 464 
Q 2878 531 3122 666 
L 3122 134 
Q 2881 22 2623 -34 
Q 2366 -91 2075 -91 
Q 1284 -91 818 406 
Q 353 903 353 1747 
Q 353 2603 823 3093 
Q 1294 3584 2113 3584 
Q 2378 3584 2631 3529 
Q 2884 3475 3122 3366 
z
" transform="scale(0.015625)"/>
        <path id="DejaVuSans-76" d="M 191 3500 
L 800 3500 
L 1894 563 
L 2988 3500 
L 3597 3500 
L 2284 0 
L 1503 0 
L 191 3500 
z
" transform="scale(0.015625)"/>
       </defs>
       <use xlink:href="#DejaVuSans-42"/>
       <use xlink:href="#DejaVuSans-61" x="68.603516"/>
       <use xlink:href="#DejaVuSans-64" x="129.882812"/>
       <use xlink:href="#DejaVuSans-20" x="193.359375"/>
       <use xlink:href="#DejaVuSans-6d" x="225.146484"/>
       <use xlink:href="#DejaVuSans-65" x="322.558594"/>
       <use xlink:href="#DejaVuSans-64" x="384.082031"/>
       <use xlink:href="#DejaVuSans-69" x="447.558594"/>
       <use xlink:href="#DejaVuSans-63" x="475.341797"/>
       <use xlink:href="#DejaVuSans-61" x="530.322266"/>
       <use xlink:href="#DejaVuSans-6c" x="591.601562"/>
       <use xlink:href="#DejaVuSans-20" x="619.384766"/>
       <use xlink:href="#DejaVuSans-61" x="651.171875"/>
       <use xlink:href="#DejaVuSans-64" x="712.451172"/>
       <use xlink:href="#DejaVuSans-76" x="775.927734"/>
       <use xlink:href="#DejaVuSans-69" x="835.107422"/>
       <use xlink:href="#DejaVuSans-63" x="862.890625"/>
       <use xlink:href="#DejaVuSans-65" x="917.871094"/>
      </g>
     </g>
    </g>
    <g id="ytick_2">
     <g id="line2d_18"/>
     <g id="text_11">
      <!-- Extreme sports -->
      <g transform="translate(41.91875 117.366713) scale(0.11 -0.11)">
       <defs>
        <path id="DejaVuSans-78" d="M 3513 3500 
L 2247 1797 
L 3578 0 
L 2900 0 
L 1881 1375 
L 863 0 
L 184 0 
L 1544 1831 
L 300 3500 
L 978 3500 
L 1906 2253 
L 2834 3500 
L 3513 3500 
z
" transform="scale(0.015625)"/>
        <path id="DejaVuSans-72" d="M 2631 2963 
Q 2534 3019 2420 3045 
Q 2306 3072 2169 3072 
Q 1681 3072 1420 2755 
Q 1159 2438 1159 1844 
L 1159 0 
L 581 0 
L 581 3500 
L 1159 3500 
L 1159 2956 
Q 1341 3275 1631 3429 
Q 1922 3584 2338 3584 
Q 2397 3584 2469 3576 
Q 2541 3569 2628 3553 
L 2631 2963 
z
" transform="scale(0.015625)"/>
        <path id="DejaVuSans-70" d="M 1159 525 
L 1159 -1331 
L 581 -1331 
L 581 3500 
L 1159 3500 
L 1159 2969 
Q 1341 3281 1617 3432 
Q 1894 3584 2278 3584 
Q 2916 3584 3314 3078 
Q 3713 2572 3713 1747 
Q 3713 922 3314 415 
Q 2916 -91 2278 -91 
Q 1894 -91 1617 61 
Q 1341 213 1159 525 
z
M 3116 1747 
Q 3116 2381 2855 2742 
Q 2594 3103 2138 3103 
Q 1681 3103 1420 2742 
Q 1159 2381 1159 1747 
Q 1159 1113 1420 752 
Q 1681 391 2138 391 
Q 2594 391 2855 752 
Q 3116 1113 3116 1747 
z
" transform="scale(0.015625)"/>
        <path id="DejaVuSans-6f" d="M 1959 3097 
Q 1497 3097 1228 2736 
Q 959 2375 959 1747 
Q 959 1119 1226 758 
Q 1494 397 1959 397 
Q 2419 397 2687 759 
Q 2956 1122 2956 1747 
Q 2956 2369 2687 2733 
Q 2419 3097 1959 3097 
z
M 1959 3584 
Q 2709 3584 3137 3096 
Q 3566 2609 3566 1747 
Q 3566 888 3137 398 
Q 2709 -91 1959 -91 
Q 1206 -91 779 398 
Q 353 888 353 1747 
Q 353 2609 779 3096 
Q 1206 3584 1959 3584 
z
" transform="scale(0.015625)"/>
       </defs>
       <use xlink:href="#DejaVuSans-45"/>
       <use xlink:href="#DejaVuSans-78" x="63.183594"/>
       <use xlink:href="#DejaVuSans-74" x="122.363281"/>
       <use xlink:href="#DejaVuSans-72" x="161.572266"/>
       <use xlink:href="#DejaVuSans-65" x="200.435547"/>
       <use xlink:href="#DejaVuSans-6d" x="261.958984"/>
       <use xlink:href="#DejaVuSans-65" x="359.371094"/>
       <use xlink:href="#DejaVuSans-20" x="420.894531"/>
       <use xlink:href="#DejaVuSans-73" x="452.681641"/>
       <use xlink:href="#DejaVuSans-70" x="504.78125"/>
       <use xlink:href="#DejaVuSans-6f" x="568.257812"/>
       <use xlink:href="#DejaVuSans-72" x="629.439453"/>
       <use xlink:href="#DejaVuSans-74" x="670.552734"/>
       <use xlink:href="#DejaVuSans-73" x="709.761719"/>
      </g>
     </g>
    </g>
    <g id="ytick_3">
     <g id="line2d_19"/>
     <g id="text_12">
      <!-- Risky financial advice -->
      <g transform="translate(7.2 170.156953) scale(0.11 -0.11)">
       <defs>
        <path id="DejaVuSans-52" d="M 2841 2188 
Q 3044 2119 3236 1894 
Q 3428 1669 3622 1275 
L 4263 0 
L 3584 0 
L 2988 1197 
Q 2756 1666 2539 1819 
Q 2322 1972 1947 1972 
L 1259 1972 
L 1259 0 
L 628 0 
L 628 4666 
L 2053 4666 
Q 2853 4666 3247 4331 
Q 3641 3997 3641 3322 
Q 3641 2881 3436 2590 
Q 3231 2300 2841 2188 
z
M 1259 4147 
L 1259 2491 
L 2053 2491 
Q 2509 2491 2742 2702 
Q 2975 2913 2975 3322 
Q 2975 3731 2742 3939 
Q 2509 4147 2053 4147 
L 1259 4147 
z
" transform="scale(0.015625)"/>
        <path id="DejaVuSans-6b" d="M 581 4863 
L 1159 4863 
L 1159 1991 
L 2875 3500 
L 3609 3500 
L 1753 1863 
L 3688 0 
L 2938 0 
L 1159 1709 
L 1159 0 
L 581 0 
L 581 4863 
z
" transform="scale(0.015625)"/>
        <path id="DejaVuSans-79" d="M 2059 -325 
Q 1816 -950 1584 -1140 
Q 1353 -1331 966 -1331 
L 506 -1331 
L 506 -850 
L 844 -850 
Q 1081 -850 1212 -737 
Q 1344 -625 1503 -206 
L 1606 56 
L 191 3500 
L 800 3500 
L 1894 763 
L 2988 3500 
L 3597 3500 
L 2059 -325 
z
" transform="scale(0.015625)"/>
        <path id="DejaVuSans-66" d="M 2375 4863 
L 2375 4384 
L 1825 4384 
Q 1516 4384 1395 4259 
Q 1275 4134 1275 3809 
L 1275 3500 
L 2222 3500 
L 2222 3053 
L 1275 3053 
L 1275 0 
L 697 0 
L 697 3053 
L 147 3053 
L 147 3500 
L 697 3500 
L 697 3744 
Q 697 4328 969 4595 
Q 1241 4863 1831 4863 
L 2375 4863 
z
" transform="scale(0.015625)"/>
       </defs>
       <use xlink:href="#DejaVuSans-52"/>
       <use xlink:href="#DejaVuSans-69" x="69.482422"/>
       <use xlink:href="#DejaVuSans-73" x="97.265625"/>
       <use xlink:href="#DejaVuSans-6b" x="149.365234"/>
       <use xlink:href="#DejaVuSans-79" x="203.650391"/>
       <use xlink:href="#DejaVuSans-20" x="262.830078"/>
       <use xlink:href="#DejaVuSans-66" x="294.617188"/>
       <use xlink:href="#DejaVuSans-69" x="329.822266"/>
       <use xlink:href="#DejaVuSans-6e" x="357.605469"/>
       <use xlink:href="#DejaVuSans-61" x="420.984375"/>
       <use xlink:href="#DejaVuSans-6e" x="482.263672"/>
       <use xlink:href="#DejaVuSans-63" x="545.642578"/>
       <use xlink:href="#DejaVuSans-69" x="600.623047"/>
       <use xlink:href="#DejaVuSans-61" x="628.40625"/>
       <use xlink:href="#DejaVuSans-6c" x="689.685547"/>
       <use xlink:href="#DejaVuSans-20" x="717.46875"/>
       <use xlink:href="#DejaVuSans-61" x="749.255859"/>
       <use xlink:href="#DejaVuSans-64" x="810.535156"/>
       <use xlink:href="#DejaVuSans-76" x="874.011719"/>
       <use xlink:href="#DejaVuSans-69" x="933.191406"/>
       <use xlink:href="#DejaVuSans-63" x="960.974609"/>
       <use xlink:href="#DejaVuSans-65" x="1015.955078"/>
      </g>
     </g>
    </g>
    <g id="ytick_4">
     <g id="line2d_20"/>
     <g id="text_13">
      <!-- In all three models -->
      <g transform="translate(23.088125 222.947193) scale(0.11 -0.11)">
       <defs>
        <path id="DejaVuSans-49" d="M 628 4666 
L 1259 4666 
L 1259 0 
L 628 0 
L 628 4666 
z
" transform="scale(0.015625)"/>
        <path id="DejaVuSans-68" d="M 3513 2113 
L 3513 0 
L 2938 0 
L 2938 2094 
Q 2938 2591 2744 2837 
Q 2550 3084 2163 3084 
Q 1697 3084 1428 2787 
Q 1159 2491 1159 1978 
L 1159 0 
L 581 0 
L 581 4863 
L 1159 4863 
L 1159 2956 
Q 1366 3272 1645 3428 
Q 1925 3584 2291 3584 
Q 2894 3584 3203 3211 
Q 3513 2838 3513 2113 
z
" transform="scale(0.015625)"/>
       </defs>
       <use xlink:href="#DejaVuSans-49"/>
       <use xlink:href="#DejaVuSans-6e" x="29.492188"/>
       <use xlink:href="#DejaVuSans-20" x="92.871094"/>
       <use xlink:href="#DejaVuSans-61" x="124.658203"/>
       <use xlink:href="#DejaVuSans-6c" x="185.9375"/>
       <use xlink:href="#DejaVuSans-6c" x="213.720703"/>
       <use xlink:href="#DejaVuSans-20" x="241.503906"/>
       <use xlink:href="#DejaVuSans-74" x="273.291016"/>
       <use xlink:href="#DejaVuSans-68" x="312.5"/>
       <use xlink:href="#DejaVuSans-72" x="375.878906"/>
       <use xlink:href="#DejaVuSans-65" x="414.742188"/>
       <use xlink:href="#DejaVuSans-65" x="476.265625"/>
       <use xlink:href="#DejaVuSans-20" x="537.789062"/>
       <use xlink:href="#DejaVuSans-6d" x="569.576172"/>
       <use xlink:href="#DejaVuSans-6f" x="666.988281"/>
       <use xlink:href="#DejaVuSans-64" x="728.169922"/>
       <use xlink:href="#DejaVuSans-65" x="791.646484"/>
       <use xlink:href="#DejaVuSans-6c" x="853.169922"/>
       <use xlink:href="#DejaVuSans-73" x="880.953125"/>
      </g>
     </g>
    </g>
    <g id="ytick_5">
     <g id="line2d_21"/>
     <g id="text_14">
      <!-- SAE latent deltas -->
      <g transform="translate(31.314062 270.414465) scale(0.11 -0.11)">
       <use xlink:href="#DejaVuSans-53"/>
       <use xlink:href="#DejaVuSans-41" x="65.351562"/>
       <use xlink:href="#DejaVuSans-45" x="133.759766"/>
       <use xlink:href="#DejaVuSans-20" x="196.943359"/>
       <use xlink:href="#DejaVuSans-6c" x="228.730469"/>
       <use xlink:href="#DejaVuSans-61" x="256.513672"/>
       <use xlink:href="#DejaVuSans-74" x="317.792969"/>
       <use xlink:href="#DejaVuSans-65" x="357.001953"/>
       <use xlink:href="#DejaVuSans-6e" x="418.525391"/>
       <use xlink:href="#DejaVuSans-74" x="481.904297"/>
       <use xlink:href="#DejaVuSans-20" x="521.113281"/>
       <use xlink:href="#DejaVuSans-64" x="552.900391"/>
       <use xlink:href="#DejaVuSans-65" x="616.376953"/>
       <use xlink:href="#DejaVuSans-6c" x="677.900391"/>
       <use xlink:href="#DejaVuSans-74" x="705.683594"/>
       <use xlink:href="#DejaVuSans-61" x="744.892578"/>
       <use xlink:href="#DejaVuSans-73" x="806.171875"/>
      </g>
      <!-- (bad medical advice) -->
      <g transform="translate(9.965469 282.732058) scale(0.11 -0.11)">
       <defs>
        <path id="DejaVuSans-62" d="M 3116 1747 
Q 3116 2381 2855 2742 
Q 2594 3103 2138 3103 
Q 1681 3103 1420 2742 
Q 1159 2381 1159 1747 
Q 1159 1113 1420 752 
Q 1681 391 2138 391 
Q 2594 391 2855 752 
Q 3116 1113 3116 1747 
z
M 1159 2969 
Q 1341 3281 1617 3432 
Q 1894 3584 2278 3584 
Q 2916 3584 3314 3078 
Q 3713 2572 3713 1747 
Q 3713 922 3314 415 
Q 2916 -91 2278 -91 
Q 1894 -91 1617 61 
Q 1341 213 1159 525 
L 1159 0 
L 581 0 
L 581 4863 
L 1159 4863 
L 1159 2969 
z
" transform="scale(0.015625)"/>
       </defs>
       <use xlink:href="#DejaVuSans-28"/>
       <use xlink:href="#DejaVuSans-62" x="39.013672"/>
       <use xlink:href="#DejaVuSans-61" x="102.490234"/>
       <use xlink:href="#DejaVuSans-64" x="163.769531"/>
       <use xlink:href="#DejaVuSans-20" x="227.246094"/>
       <use xlink:href="#DejaVuSans-6d" x="259.033203"/>
       <use xlink:href="#DejaVuSans-65" x="356.445312"/>
       <use xlink:href="#DejaVuSans-64" x="417.96875"/>
       <use xlink:href="#DejaVuSans-69" x="481.445312"/>
       <use xlink:href="#DejaVuSans-63" x="509.228516"/>
       <use xlink:href="#DejaVuSans-61" x="564.208984"/>
       <use xlink:href="#DejaVuSans-6c" x="625.488281"/>
       <use xlink:href="#DejaVuSans-20" x="653.271484"/>
       <use xlink:href="#DejaVuSans-61" x="685.058594"/>
       <use xlink:href="#DejaVuSans-64" x="746.337891"/>
       <use xlink:href="#DejaVuSans-76" x="809.814453"/>
       <use xlink:href="#DejaVuSans-69" x="868.994141"/>
       <use xlink:href="#DejaVuSans-63" x="896.777344"/>
       <use xlink:href="#DejaVuSans-65" x="951.757812"/>
       <use xlink:href="#DejaVuSans-29" x="1013.28125"/>
      </g>
     </g>
    </g>
   </g>
   <g id="line2d_22">
    <path d="M 519.64111 300.117812 
L 519.64111 31.837812 
" clip-path="url(#p5a41b2b87e)" style="fill: none; stroke-dasharray: 3.7,1.6; stroke-dashoffset: 0; stroke: #888888; stroke-opacity: 0.7"/>
   </g>
   <g id="patch_3">
    <path d="M 131.723281 300.117812 
L 131.723281 31.837812 
" style="fill: none; stroke: #cccccc; stroke-width: 0.8; stroke-linejoin: miter; stroke-linecap: square"/>
   </g>
   <g id="patch_4">
    <path d="M 131.723281 300.117812 
L 528.951138 300.117812 
" style="fill: none; stroke: #cccccc; stroke-width: 0.8; stroke-linejoin: miter; stroke-linecap: square"/>
   </g>
   <g id="patch_5">
    <path d="M 131.723281 44.032358 
L 286.890413 44.032358 
L 286.890413 76.762307 
L 131.723281 76.762307 
z
" clip-path="url(#p5a41b2b87e)" style="fill: #3b6ea8; stroke: #ffffff; stroke-width: 1.2; stroke-linejoin: miter"/>
   </g>
   <g id="patch_6">
    <path d="M 131.723281 96.822598 
L 386.640712 96.822598 
L 386.640712 129.552547 
L 131.723281 129.552547 
z
" clip-path="url(#p5a41b2b87e)" style="fill: #3b6ea8; stroke: #ffffff; stroke-width: 1.2; stroke-linejoin: miter"/>
   </g>
   <g id="patch_7">
    <path d="M 131.723281 149.612838 
L 442.057545 149.612838 
L 442.057545 182.342787 
L 131.723281 182.342787 
z
" clip-path="url(#p5a41b2b87e)" style="fill: #3b6ea8; stroke: #ffffff; stroke-width: 1.2; stroke-linejoin: miter"/>
   </g>
   <g id="patch_8">
    <path d="M 131.723281 202.403078 
L 253.640313 202.403078 
L 253.640313 235.133027 
L 131.723281 235.133027 
z
" clip-path="url(#p5a41b2b87e)" style="fill: #c9a227; stroke: #ffffff; stroke-width: 1.2; stroke-linejoin: miter"/>
   </g>
   <g id="patch_9">
    <path d="M 131.723281 255.193318 
L 176.056747 255.193318 
L 176.056747 287.923267 
L 131.723281 287.923267 
z
" clip-path="url(#p5a41b2b87e)" style="fill: #b85c4a; stroke: #ffffff; stroke-width: 1.2; stroke-linejoin: miter"/>
   </g>
   <g id="text_15">
    <!-- 35 unique (cosine union) -->
    <g style="fill: #666666" transform="translate(521.857784 312.710542) scale(0.09 -0.09)">
     <defs>
      <path id="DejaVuSans-71" d="M 947 1747 
Q 947 1113 1208 752 
Q 1469 391 1925 391 
Q 2381 391 2643 752 
Q 2906 1113 2906 1747 
Q 2906 2381 2643 2742 
Q 2381 3103 1925 3103 
Q 1469 3103 1208 2742 
Q 947 2381 947 1747 
z
M 2906 525 
Q 2725 213 2448 61 
Q 2172 -91 1784 -91 
Q 1150 -91 751 415 
Q 353 922 353 1747 
Q 353 2572 751 3078 
Q 1150 3584 1784 3584 
Q 2172 3584 2448 3432 
Q 2725 3281 2906 2969 
L 2906 3500 
L 3481 3500 
L 3481 -1331 
L 2906 -1331 
L 2906 525 
z
" transform="scale(0.015625)"/>
     </defs>
     <use xlink:href="#DejaVuSans-33"/>
     <use xlink:href="#DejaVuSans-35" x="63.623047"/>
     <use xlink:href="#DejaVuSans-20" x="127.246094"/>
     <use xlink:href="#DejaVuSans-75" x="159.033203"/>
     <use xlink:href="#DejaVuSans-6e" x="222.412109"/>
     <use xlink:href="#DejaVuSans-69" x="285.791016"/>
     <use xlink:href="#DejaVuSans-71" x="313.574219"/>
     <use xlink:href="#DejaVuSans-75" x="377.050781"/>
     <use xlink:href="#DejaVuSans-65" x="440.429688"/>
     <use xlink:href="#DejaVuSans-20" x="501.953125"/>
     <use xlink:href="#DejaVuSans-28" x="533.740234"/>
     <use xlink:href="#DejaVuSans-63" x="572.753906"/>
     <use xlink:href="#DejaVuSans-6f" x="627.734375"/>
     <use xlink:href="#DejaVuSans-73" x="688.916016"/>
     <use xlink:href="#DejaVuSans-69" x="741.015625"/>
     <use xlink:href="#DejaVuSans-6e" x="768.798828"/>
     <use xlink:href="#DejaVuSans-65" x="832.177734"/>
     <use xlink:href="#DejaVuSans-20" x="893.701172"/>
     <use xlink:href="#DejaVuSans-75" x="925.488281"/>
     <use xlink:href="#DejaVuSans-6e" x="988.867188"/>
     <use xlink:href="#DejaVuSans-69" x="1052.246094"/>
     <use xlink:href="#DejaVuSans-6f" x="1080.029297"/>
     <use xlink:href="#DejaVuSans-6e" x="1141.210938"/>
     <use xlink:href="#DejaVuSans-29" x="1204.589844"/>
    </g>
   </g>
   <g id="text_16">
    <!-- Misaligned feature descriptions by discovery method -->
    <g style="fill: #1a1a1a" transform="translate(120.034241 17.837812) scale(0.14 -0.14)">
     <defs>
      <path id="DejaVuSans-Bold-4d" d="M 588 4666 
L 2119 4666 
L 3181 2169 
L 4250 4666 
L 5778 4666 
L 5778 0 
L 4641 0 
L 4641 3413 
L 3566 897 
L 2803 897 
L 1728 3413 
L 1728 0 
L 588 0 
L 588 4666 
z
" transform="scale(0.015625)"/>
      <path id="DejaVuSans-Bold-69" d="M 538 3500 
L 1656 3500 
L 1656 0 
L 538 0 
L 538 3500 
z
M 538 4863 
L 1656 4863 
L 1656 3950 
L 538 3950 
L 538 4863 
z
" transform="scale(0.015625)"/>
      <path id="DejaVuSans-Bold-73" d="M 3272 3391 
L 3272 2541 
Q 2913 2691 2578 2766 
Q 2244 2841 1947 2841 
Q 1628 2841 1473 2761 
Q 1319 2681 1319 2516 
Q 1319 2381 1436 2309 
Q 1553 2238 1856 2203 
L 2053 2175 
Q 2913 2066 3209 1816 
Q 3506 1566 3506 1031 
Q 3506 472 3093 190 
Q 2681 -91 1863 -91 
Q 1516 -91 1145 -36 
Q 775 19 384 128 
L 384 978 
Q 719 816 1070 734 
Q 1422 653 1784 653 
Q 2113 653 2278 743 
Q 2444 834 2444 1013 
Q 2444 1163 2330 1236 
Q 2216 1309 1875 1350 
L 1678 1375 
Q 931 1469 631 1722 
Q 331 1975 331 2491 
Q 331 3047 712 3315 
Q 1094 3584 1881 3584 
Q 2191 3584 2531 3537 
Q 2872 3491 3272 3391 
z
" transform="scale(0.015625)"/>
      <path id="DejaVuSans-Bold-61" d="M 2106 1575 
Q 1756 1575 1579 1456 
Q 1403 1338 1403 1106 
Q 1403 894 1545 773 
Q 1688 653 1941 653 
Q 2256 653 2472 879 
Q 2688 1106 2688 1447 
L 2688 1575 
L 2106 1575 
z
M 3816 1997 
L 3816 0 
L 2688 0 
L 2688 519 
Q 2463 200 2181 54 
Q 1900 -91 1497 -91 
Q 953 -91 614 226 
Q 275 544 275 1050 
Q 275 1666 698 1953 
Q 1122 2241 2028 2241 
L 2688 2241 
L 2688 2328 
Q 2688 2594 2478 2717 
Q 2269 2841 1825 2841 
Q 1466 2841 1156 2769 
Q 847 2697 581 2553 
L 581 3406 
Q 941 3494 1303 3539 
Q 1666 3584 2028 3584 
Q 2975 3584 3395 3211 
Q 3816 2838 3816 1997 
z
" transform="scale(0.015625)"/>
      <path id="DejaVuSans-Bold-6c" d="M 538 4863 
L 1656 4863 
L 1656 0 
L 538 0 
L 538 4863 
z
" transform="scale(0.015625)"/>
      <path id="DejaVuSans-Bold-67" d="M 2919 594 
Q 2688 288 2409 144 
Q 2131 0 1766 0 
Q 1125 0 706 504 
Q 288 1009 288 1791 
Q 288 2575 706 3076 
Q 1125 3578 1766 3578 
Q 2131 3578 2409 3434 
Q 2688 3291 2919 2981 
L 2919 3500 
L 4044 3500 
L 4044 353 
Q 4044 -491 3511 -936 
Q 2978 -1381 1966 -1381 
Q 1638 -1381 1331 -1331 
Q 1025 -1281 716 -1178 
L 716 -306 
Q 1009 -475 1290 -558 
Q 1572 -641 1856 -641 
Q 2406 -641 2662 -400 
Q 2919 -159 2919 353 
L 2919 594 
z
M 2181 2772 
Q 1834 2772 1640 2515 
Q 1447 2259 1447 1791 
Q 1447 1309 1634 1061 
Q 1822 813 2181 813 
Q 2531 813 2725 1069 
Q 2919 1325 2919 1791 
Q 2919 2259 2725 2515 
Q 2531 2772 2181 2772 
z
" transform="scale(0.015625)"/>
      <path id="DejaVuSans-Bold-6e" d="M 4056 2131 
L 4056 0 
L 2931 0 
L 2931 347 
L 2931 1631 
Q 2931 2084 2911 2256 
Q 2891 2428 2841 2509 
Q 2775 2619 2662 2680 
Q 2550 2741 2406 2741 
Q 2056 2741 1856 2470 
Q 1656 2200 1656 1722 
L 1656 0 
L 538 0 
L 538 3500 
L 1656 3500 
L 1656 2988 
Q 1909 3294 2193 3439 
Q 2478 3584 2822 3584 
Q 3428 3584 3742 3212 
Q 4056 2841 4056 2131 
z
" transform="scale(0.015625)"/>
      <path id="DejaVuSans-Bold-65" d="M 4031 1759 
L 4031 1441 
L 1416 1441 
Q 1456 1047 1700 850 
Q 1944 653 2381 653 
Q 2734 653 3104 758 
Q 3475 863 3866 1075 
L 3866 213 
Q 3469 63 3072 -14 
Q 2675 -91 2278 -91 
Q 1328 -91 801 392 
Q 275 875 275 1747 
Q 275 2603 792 3093 
Q 1309 3584 2216 3584 
Q 3041 3584 3536 3087 
Q 4031 2591 4031 1759 
z
M 2881 2131 
Q 2881 2450 2695 2645 
Q 2509 2841 2209 2841 
Q 1884 2841 1681 2658 
Q 1478 2475 1428 2131 
L 2881 2131 
z
" transform="scale(0.015625)"/>
      <path id="DejaVuSans-Bold-64" d="M 2919 2988 
L 2919 4863 
L 4044 4863 
L 4044 0 
L 2919 0 
L 2919 506 
Q 2688 197 2409 53 
Q 2131 -91 1766 -91 
Q 1119 -91 703 423 
Q 288 938 288 1747 
Q 288 2556 703 3070 
Q 1119 3584 1766 3584 
Q 2128 3584 2408 3439 
Q 2688 3294 2919 2988 
z
M 2181 722 
Q 2541 722 2730 984 
Q 2919 1247 2919 1747 
Q 2919 2247 2730 2509 
Q 2541 2772 2181 2772 
Q 1825 2772 1636 2509 
Q 1447 2247 1447 1747 
Q 1447 1247 1636 984 
Q 1825 722 2181 722 
z
" transform="scale(0.015625)"/>
      <path id="DejaVuSans-Bold-20" transform="scale(0.015625)"/>
      <path id="DejaVuSans-Bold-66" d="M 2841 4863 
L 2841 4128 
L 2222 4128 
Q 1984 4128 1890 4042 
Q 1797 3956 1797 3744 
L 1797 3500 
L 2753 3500 
L 2753 2700 
L 1797 2700 
L 1797 0 
L 678 0 
L 678 2700 
L 122 2700 
L 122 3500 
L 678 3500 
L 678 3744 
Q 678 4316 997 4589 
Q 1316 4863 1984 4863 
L 2841 4863 
z
" transform="scale(0.015625)"/>
      <path id="DejaVuSans-Bold-74" d="M 1759 4494 
L 1759 3500 
L 2913 3500 
L 2913 2700 
L 1759 2700 
L 1759 1216 
Q 1759 972 1856 886 
Q 1953 800 2241 800 
L 2816 800 
L 2816 0 
L 1856 0 
Q 1194 0 917 276 
Q 641 553 641 1216 
L 641 2700 
L 84 2700 
L 84 3500 
L 641 3500 
L 641 4494 
L 1759 4494 
z
" transform="scale(0.015625)"/>
      <path id="DejaVuSans-Bold-75" d="M 500 1363 
L 500 3500 
L 1625 3500 
L 1625 3150 
Q 1625 2866 1622 2436 
Q 1619 2006 1619 1863 
Q 1619 1441 1641 1255 
Q 1663 1069 1716 984 
Q 1784 875 1895 815 
Q 2006 756 2150 756 
Q 2500 756 2700 1025 
Q 2900 1294 2900 1772 
L 2900 3500 
L 4019 3500 
L 4019 0 
L 2900 0 
L 2900 506 
Q 2647 200 2364 54 
Q 2081 -91 1741 -91 
Q 1134 -91 817 281 
Q 500 653 500 1363 
z
" transform="scale(0.015625)"/>
      <path id="DejaVuSans-Bold-72" d="M 3138 2547 
Q 2991 2616 2845 2648 
Q 2700 2681 2553 2681 
Q 2122 2681 1889 2404 
Q 1656 2128 1656 1613 
L 1656 0 
L 538 0 
L 538 3500 
L 1656 3500 
L 1656 2925 
Q 1872 3269 2151 3426 
Q 2431 3584 2822 3584 
Q 2878 3584 2943 3579 
Q 3009 3575 3134 3559 
L 3138 2547 
z
" transform="scale(0.015625)"/>
      <path id="DejaVuSans-Bold-63" d="M 3366 3391 
L 3366 2478 
Q 3138 2634 2908 2709 
Q 2678 2784 2431 2784 
Q 1963 2784 1702 2511 
Q 1441 2238 1441 1747 
Q 1441 1256 1702 982 
Q 1963 709 2431 709 
Q 2694 709 2930 787 
Q 3166 866 3366 1019 
L 3366 103 
Q 3103 6 2833 -42 
Q 2563 -91 2291 -91 
Q 1344 -91 809 395 
Q 275 881 275 1747 
Q 275 2613 809 3098 
Q 1344 3584 2291 3584 
Q 2566 3584 2833 3536 
Q 3100 3488 3366 3391 
z
" transform="scale(0.015625)"/>
      <path id="DejaVuSans-Bold-70" d="M 1656 506 
L 1656 -1331 
L 538 -1331 
L 538 3500 
L 1656 3500 
L 1656 2988 
Q 1888 3294 2169 3439 
Q 2450 3584 2816 3584 
Q 3463 3584 3878 3070 
Q 4294 2556 4294 1747 
Q 4294 938 3878 423 
Q 3463 -91 2816 -91 
Q 2450 -91 2169 54 
Q 1888 200 1656 506 
z
M 2400 2772 
Q 2041 2772 1848 2508 
Q 1656 2244 1656 1747 
Q 1656 1250 1848 986 
Q 2041 722 2400 722 
Q 2759 722 2948 984 
Q 3138 1247 3138 1747 
Q 3138 2247 2948 2509 
Q 2759 2772 2400 2772 
z
" transform="scale(0.015625)"/>
      <path id="DejaVuSans-Bold-6f" d="M 2203 2784 
Q 1831 2784 1636 2517 
Q 1441 2250 1441 1747 
Q 1441 1244 1636 976 
Q 1831 709 2203 709 
Q 2569 709 2762 976 
Q 2956 1244 2956 1747 
Q 2956 2250 2762 2517 
Q 2569 2784 2203 2784 
z
M 2203 3584 
Q 3106 3584 3614 3096 
Q 4122 2609 4122 1747 
Q 4122 884 3614 396 
Q 3106 -91 2203 -91 
Q 1297 -91 786 396 
Q 275 884 275 1747 
Q 275 2609 786 3096 
Q 1297 3584 2203 3584 
z
" transform="scale(0.015625)"/>
      <path id="DejaVuSans-Bold-62" d="M 2400 722 
Q 2759 722 2948 984 
Q 3138 1247 3138 1747 
Q 3138 2247 2948 2509 
Q 2759 2772 2400 2772 
Q 2041 2772 1848 2508 
Q 1656 2244 1656 1747 
Q 1656 1250 1848 986 
Q 2041 722 2400 722 
z
M 1656 2988 
Q 1888 3294 2169 3439 
Q 2450 3584 2816 3584 
Q 3463 3584 3878 3070 
Q 4294 2556 4294 1747 
Q 4294 938 3878 423 
Q 3463 -91 2816 -91 
Q 2450 -91 2169 54 
Q 1888 200 1656 506 
L 1656 0 
L 538 0 
L 538 4863 
L 1656 4863 
L 1656 2988 
z
" transform="scale(0.015625)"/>
      <path id="DejaVuSans-Bold-79" d="M 78 3500 
L 1197 3500 
L 2138 1125 
L 2938 3500 
L 4056 3500 
L 2584 -331 
Q 2363 -916 2067 -1148 
Q 1772 -1381 1288 -1381 
L 641 -1381 
L 641 -647 
L 991 -647 
Q 1275 -647 1404 -556 
Q 1534 -466 1606 -231 
L 1638 -134 
L 78 3500 
z
" transform="scale(0.015625)"/>
      <path id="DejaVuSans-Bold-76" d="M 97 3500 
L 1216 3500 
L 2088 1081 
L 2956 3500 
L 4078 3500 
L 2700 0 
L 1472 0 
L 97 3500 
z
" transform="scale(0.015625)"/>
      <path id="DejaVuSans-Bold-6d" d="M 3781 2919 
Q 3994 3244 4286 3414 
Q 4578 3584 4928 3584 
Q 5531 3584 5847 3212 
Q 6163 2841 6163 2131 
L 6163 0 
L 5038 0 
L 5038 1825 
Q 5041 1866 5042 1909 
Q 5044 1953 5044 2034 
Q 5044 2406 4934 2573 
Q 4825 2741 4581 2741 
Q 4263 2741 4089 2478 
Q 3916 2216 3909 1719 
L 3909 0 
L 2784 0 
L 2784 1825 
Q 2784 2406 2684 2573 
Q 2584 2741 2328 2741 
Q 2006 2741 1831 2477 
Q 1656 2213 1656 1722 
L 1656 0 
L 531 0 
L 531 3500 
L 1656 3500 
L 1656 2988 
Q 1863 3284 2130 3434 
Q 2397 3584 2719 3584 
Q 3081 3584 3359 3409 
Q 3638 3234 3781 2919 
z
" transform="scale(0.015625)"/>
      <path id="DejaVuSans-Bold-68" d="M 4056 2131 
L 4056 0 
L 2931 0 
L 2931 347 
L 2931 1625 
Q 2931 2084 2911 2256 
Q 2891 2428 2841 2509 
Q 2775 2619 2662 2680 
Q 2550 2741 2406 2741 
Q 2056 2741 1856 2470 
Q 1656 2200 1656 1722 
L 1656 0 
L 538 0 
L 538 4863 
L 1656 4863 
L 1656 2988 
Q 1909 3294 2193 3439 
Q 2478 3584 2822 3584 
Q 3428 3584 3742 3212 
Q 4056 2841 4056 2131 
z
" transform="scale(0.015625)"/>
     </defs>
     <use xlink:href="#DejaVuSans-Bold-4d"/>
     <use xlink:href="#DejaVuSans-Bold-69" x="99.511719"/>
     <use xlink:href="#DejaVuSans-Bold-73" x="133.789062"/>
     <use xlink:href="#DejaVuSans-Bold-61" x="193.310547"/>
     <use xlink:href="#DejaVuSans-Bold-6c" x="260.791016"/>
     <use xlink:href="#DejaVuSans-Bold-69" x="295.068359"/>
     <use xlink:href="#DejaVuSans-Bold-67" x="329.345703"/>
     <use xlink:href="#DejaVuSans-Bold-6e" x="400.927734"/>
     <use xlink:href="#DejaVuSans-Bold-65" x="472.119141"/>
     <use xlink:href="#DejaVuSans-Bold-64" x="539.941406"/>
     <use xlink:href="#DejaVuSans-Bold-20" x="611.523438"/>
     <use xlink:href="#DejaVuSans-Bold-66" x="646.337891"/>
     <use xlink:href="#DejaVuSans-Bold-65" x="689.84375"/>
     <use xlink:href="#DejaVuSans-Bold-61" x="757.666016"/>
     <use xlink:href="#DejaVuSans-Bold-74" x="825.146484"/>
     <use xlink:href="#DejaVuSans-Bold-75" x="872.949219"/>
     <use xlink:href="#DejaVuSans-Bold-72" x="944.140625"/>
     <use xlink:href="#DejaVuSans-Bold-65" x="993.457031"/>
     <use xlink:href="#DejaVuSans-Bold-20" x="1061.279297"/>
     <use xlink:href="#DejaVuSans-Bold-64" x="1096.09375"/>
     <use xlink:href="#DejaVuSans-Bold-65" x="1167.675781"/>
     <use xlink:href="#DejaVuSans-Bold-73" x="1235.498047"/>
     <use xlink:href="#DejaVuSans-Bold-63" x="1295.019531"/>
     <use xlink:href="#DejaVuSans-Bold-72" x="1354.296875"/>
     <use xlink:href="#DejaVuSans-Bold-69" x="1403.613281"/>
     <use xlink:href="#DejaVuSans-Bold-70" x="1437.890625"/>
     <use xlink:href="#DejaVuSans-Bold-74" x="1509.472656"/>
     <use xlink:href="#DejaVuSans-Bold-69" x="1557.275391"/>
     <use xlink:href="#DejaVuSans-Bold-6f" x="1591.552734"/>
     <use xlink:href="#DejaVuSans-Bold-6e" x="1660.253906"/>
     <use xlink:href="#DejaVuSans-Bold-73" x="1731.445312"/>
     <use xlink:href="#DejaVuSans-Bold-20" x="1790.966797"/>
     <use xlink:href="#DejaVuSans-Bold-62" x="1825.78125"/>
     <use xlink:href="#DejaVuSans-Bold-79" x="1897.363281"/>
     <use xlink:href="#DejaVuSans-Bold-20" x="1962.548828"/>
     <use xlink:href="#DejaVuSans-Bold-64" x="1997.363281"/>
     <use xlink:href="#DejaVuSans-Bold-69" x="2068.945312"/>
     <use xlink:href="#DejaVuSans-Bold-73" x="2103.222656"/>
     <use xlink:href="#DejaVuSans-Bold-63" x="2162.744141"/>
     <use xlink:href="#DejaVuSans-Bold-6f" x="2222.021484"/>
     <use xlink:href="#DejaVuSans-Bold-76" x="2290.722656"/>
     <use xlink:href="#DejaVuSans-Bold-65" x="2355.908203"/>
     <use xlink:href="#DejaVuSans-Bold-72" x="2423.730469"/>
     <use xlink:href="#DejaVuSans-Bold-79" x="2473.046875"/>
     <use xlink:href="#DejaVuSans-Bold-20" x="2538.232422"/>
     <use xlink:href="#DejaVuSans-Bold-6d" x="2573.046875"/>
     <use xlink:href="#DejaVuSans-Bold-65" x="2677.246094"/>
     <use xlink:href="#DejaVuSans-Bold-74" x="2745.068359"/>
     <use xlink:href="#DejaVuSans-Bold-68" x="2792.871094"/>
     <use xlink:href="#DejaVuSans-Bold-6f" x="2864.0625"/>
     <use xlink:href="#DejaVuSans-Bold-64" x="2932.763672"/>
    </g>
   </g>
   <g id="text_17">
    <path d="M 293.284178 62.150457 
L 295.277303 62.150457 
L 295.277303 56.495457 
L 293.231678 56.917332 
L 293.231678 55.381707 
L 295.264178 54.959832 
L 297.409178 54.959832 
L 297.409178 62.150457 
L 299.402303 62.150457 
L 299.402303 63.708582 
L 293.284178 63.708582 
L 293.284178 62.150457 
z
M 304.645037 56.817957 
L 302.173787 60.479832 
L 304.645037 60.479832 
L 304.645037 56.817957 
z
M 304.270037 54.959832 
L 306.778787 54.959832 
L 306.778787 60.479832 
L 308.025662 60.479832 
L 308.025662 62.114832 
L 306.778787 62.114832 
L 306.778787 63.708582 
L 304.645037 63.708582 
L 304.645037 62.114832 
L 300.767537 62.114832 
L 300.767537 60.181707 
L 304.270037 54.959832 
z
" style="fill: #1a1a1a; stroke: #fafafa; stroke-width: 3"/>
    <path d="M 293.284178 62.150457 
L 295.277303 62.150457 
L 295.277303 56.495457 
L 293.231678 56.917332 
L 293.231678 55.381707 
L 295.264178 54.959832 
L 297.409178 54.959832 
L 297.409178 62.150457 
L 299.402303 62.150457 
L 299.402303 63.708582 
L 293.284178 63.708582 
L 293.284178 62.150457 
z
M 304.645037 56.817957 
L 302.173787 60.479832 
L 304.645037 60.479832 
L 304.645037 56.817957 
z
M 304.270037 54.959832 
L 306.778787 54.959832 
L 306.778787 60.479832 
L 308.025662 60.479832 
L 308.025662 62.114832 
L 306.778787 62.114832 
L 306.778787 63.708582 
L 304.645037 63.708582 
L 304.645037 62.114832 
L 300.767537 62.114832 
L 300.767537 60.181707 
L 304.270037 54.959832 
z
" style="fill: #1a1a1a"/>
   </g>
   <g id="text_18">
    <path d="M 395.085727 114.841322 
L 398.935102 114.841322 
L 398.935102 116.498822 
L 392.576977 116.498822 
L 392.576977 114.841322 
L 395.770102 112.021322 
Q 396.199477 111.635072 396.403852 111.265697 
Q 396.608227 110.896322 396.608227 110.498822 
Q 396.608227 109.883822 396.195727 109.508822 
Q 395.783227 109.133822 395.096977 109.133822 
Q 394.570102 109.133822 393.941977 109.358822 
Q 393.315727 109.583822 392.601352 110.030072 
L 392.601352 108.108197 
Q 393.362602 107.856947 394.106977 107.725697 
Q 394.851352 107.592572 395.565727 107.592572 
Q 397.136977 107.592572 398.006977 108.284447 
Q 398.876977 108.974447 398.876977 110.211947 
Q 398.876977 110.926322 398.507602 111.545072 
Q 398.138227 112.161947 396.955102 113.200697 
L 395.085727 114.841322 
z
M 405.567211 111.781322 
Q 406.452211 112.010072 406.911586 112.576322 
Q 407.372836 113.140697 407.372836 114.014447 
Q 407.372836 115.315697 406.375336 115.992572 
Q 405.379711 116.669447 403.470961 116.669447 
Q 402.795961 116.669447 402.119086 116.560697 
Q 401.442211 116.451947 400.780336 116.234447 
L 400.780336 114.494447 
Q 401.414086 114.811322 402.036586 114.972572 
Q 402.660961 115.133822 403.264711 115.133822 
Q 404.160961 115.133822 404.639086 114.824447 
Q 405.117211 114.513197 405.117211 113.931947 
Q 405.117211 113.333822 404.627836 113.026322 
Q 404.138461 112.718822 403.182211 112.718822 
L 402.280336 112.718822 
L 402.280336 111.265697 
L 403.229086 111.265697 
Q 404.080336 111.265697 404.494711 110.999447 
Q 404.910961 110.733197 404.910961 110.187572 
Q 404.910961 109.685072 404.505961 109.409447 
Q 404.102836 109.133822 403.364086 109.133822 
Q 402.820336 109.133822 402.263461 109.257572 
Q 401.706586 109.379447 401.155336 109.619447 
L 401.155336 107.967572 
Q 401.822836 107.780072 402.479086 107.686322 
Q 403.135336 107.592572 403.769086 107.592572 
Q 405.473461 107.592572 406.319086 108.153197 
Q 407.166586 108.711947 407.166586 109.836947 
Q 407.166586 110.603822 406.761586 111.093197 
Q 406.358461 111.582572 405.567211 111.781322 
z
" style="fill: #1a1a1a; stroke: #fafafa; stroke-width: 3"/>
    <path d="M 395.085727 114.841322 
L 398.935102 114.841322 
L 398.935102 116.498822 
L 392.576977 116.498822 
L 392.576977 114.841322 
L 395.770102 112.021322 
Q 396.199477 111.635072 396.403852 111.265697 
Q 396.608227 110.896322 396.608227 110.498822 
Q 396.608227 109.883822 396.195727 109.508822 
Q 395.783227 109.133822 395.096977 109.133822 
Q 394.570102 109.133822 393.941977 109.358822 
Q 393.315727 109.583822 392.601352 110.030072 
L 392.601352 108.108197 
Q 393.362602 107.856947 394.106977 107.725697 
Q 394.851352 107.592572 395.565727 107.592572 
Q 397.136977 107.592572 398.006977 108.284447 
Q 398.876977 108.974447 398.876977 110.211947 
Q 398.876977 110.926322 398.507602 111.545072 
Q 398.138227 112.161947 396.955102 113.200697 
L 395.085727 114.841322 
z
M 405.567211 111.781322 
Q 406.452211 112.010072 406.911586 112.576322 
Q 407.372836 113.140697 407.372836 114.014447 
Q 407.372836 115.315697 406.375336 115.992572 
Q 405.379711 116.669447 403.470961 116.669447 
Q 402.795961 116.669447 402.119086 116.560697 
Q 401.442211 116.451947 400.780336 116.234447 
L 400.780336 114.494447 
Q 401.414086 114.811322 402.036586 114.972572 
Q 402.660961 115.133822 403.264711 115.133822 
Q 404.160961 115.133822 404.639086 114.824447 
Q 405.117211 114.513197 405.117211 113.931947 
Q 405.117211 113.333822 404.627836 113.026322 
Q 404.138461 112.718822 403.182211 112.718822 
L 402.280336 112.718822 
L 402.280336 111.265697 
L 403.229086 111.265697 
Q 404.080336 111.265697 404.494711 110.999447 
Q 404.910961 110.733197 404.910961 110.187572 
Q 404.910961 109.685072 404.505961 109.409447 
Q 404.102836 109.133822 403.364086 109.133822 
Q 402.820336 109.133822 402.263461 109.257572 
Q 401.706586 109.379447 401.155336 109.619447 
L 401.155336 107.967572 
Q 401.822836 107.780072 402.479086 107.686322 
Q 403.135336 107.592572 403.769086 107.592572 
Q 405.473461 107.592572 406.319086 108.153197 
Q 407.166586 108.711947 407.166586 109.836947 
Q 407.166586 110.603822 406.761586 111.093197 
Q 406.358461 111.582572 405.567211 111.781322 
z
" style="fill: #1a1a1a"/>
   </g>
   <g id="text_19">
    <path d="M 450.50256 167.631562 
L 454.351935 167.631562 
L 454.351935 169.289062 
L 447.99381 169.289062 
L 447.99381 167.631562 
L 451.186935 164.811562 
Q 451.61631 164.425312 451.820685 164.055937 
Q 452.02506 163.686562 452.02506 163.289062 
Q 452.02506 162.674062 451.61256 162.299062 
Q 451.20006 161.924062 450.51381 161.924062 
Q 449.986935 161.924062 449.35881 162.149062 
Q 448.73256 162.374062 448.018185 162.820312 
L 448.018185 160.898437 
Q 448.779435 160.647187 449.52381 160.515937 
Q 450.268185 160.382812 450.98256 160.382812 
Q 452.55381 160.382812 453.42381 161.074687 
Q 454.29381 161.764687 454.29381 163.002187 
Q 454.29381 163.716562 453.924435 164.335312 
Q 453.55506 164.952187 452.371935 165.990937 
L 450.50256 167.631562 
z
M 459.572169 165.374062 
Q 458.940294 165.374062 458.599044 165.720937 
Q 458.259669 166.065937 458.259669 166.710937 
Q 458.259669 167.355937 458.599044 167.699062 
Q 458.940294 168.040312 459.572169 168.040312 
Q 460.200294 168.040312 460.534044 167.699062 
Q 460.867794 167.355937 460.867794 166.710937 
Q 460.867794 166.060312 460.534044 165.717187 
Q 460.200294 165.374062 459.572169 165.374062 
z
M 457.925919 164.631562 
Q 457.129044 164.389687 456.724044 163.892812 
Q 456.320919 163.394062 456.320919 162.649687 
Q 456.320919 161.543437 457.145919 160.964062 
Q 457.972794 160.382812 459.572169 160.382812 
Q 461.160294 160.382812 461.985294 160.960312 
Q 462.812169 161.537812 462.812169 162.649687 
Q 462.812169 163.394062 462.405294 163.892812 
Q 461.998419 164.389687 461.201544 164.631562 
Q 462.092169 164.877187 462.545919 165.430312 
Q 462.999669 165.983437 462.999669 166.827187 
Q 462.999669 168.128437 462.135294 168.794062 
Q 461.270919 169.459687 459.572169 169.459687 
Q 457.867794 169.459687 456.997794 168.794062 
Q 456.127794 168.128437 456.127794 166.827187 
Q 456.127794 165.983437 456.581544 165.430312 
Q 457.035294 164.877187 457.925919 164.631562 
z
M 458.452794 162.878437 
Q 458.452794 163.399687 458.743419 163.680937 
Q 459.034044 163.962187 459.572169 163.962187 
Q 460.099044 163.962187 460.385919 163.680937 
Q 460.674669 163.399687 460.674669 162.878437 
Q 460.674669 162.357187 460.385919 162.079687 
Q 460.099044 161.800312 459.572169 161.800312 
Q 459.034044 161.800312 458.743419 162.081562 
Q 458.452794 162.362812 458.452794 162.878437 
z
" style="fill: #1a1a1a; stroke: #fafafa; stroke-width: 3"/>
    <path d="M 450.50256 167.631562 
L 454.351935 167.631562 
L 454.351935 169.289062 
L 447.99381 169.289062 
L 447.99381 167.631562 
L 451.186935 164.811562 
Q 451.61631 164.425312 451.820685 164.055937 
Q 452.02506 163.686562 452.02506 163.289062 
Q 452.02506 162.674062 451.61256 162.299062 
Q 451.20006 161.924062 450.51381 161.924062 
Q 449.986935 161.924062 449.35881 162.149062 
Q 448.73256 162.374062 448.018185 162.820312 
L 448.018185 160.898437 
Q 448.779435 160.647187 449.52381 160.515937 
Q 450.268185 160.382812 450.98256 160.382812 
Q 452.55381 160.382812 453.42381 161.074687 
Q 454.29381 161.764687 454.29381 163.002187 
Q 454.29381 163.716562 453.924435 164.335312 
Q 453.55506 164.952187 452.371935 165.990937 
L 450.50256 167.631562 
z
M 459.572169 165.374062 
Q 458.940294 165.374062 458.599044 165.720937 
Q 458.259669 166.065937 458.259669 166.710937 
Q 458.259669 167.355937 458.599044 167.699062 
Q 458.940294 168.040312 459.572169 168.040312 
Q 460.200294 168.040312 460.534044 167.699062 
Q 460.867794 167.355937 460.867794 166.710937 
Q 460.867794 166.060312 460.534044 165.717187 
Q 460.200294 165.374062 459.572169 165.374062 
z
M 457.925919 164.631562 
Q 457.129044 164.389687 456.724044 163.892812 
Q 456.320919 163.394062 456.320919 162.649687 
Q 456.320919 161.543437 457.145919 160.964062 
Q 457.972794 160.382812 459.572169 160.382812 
Q 461.160294 160.382812 461.985294 160.960312 
Q 462.812169 161.537812 462.812169 162.649687 
Q 462.812169 163.394062 462.405294 163.892812 
Q 461.998419 164.389687 461.201544 164.631562 
Q 462.092169 164.877187 462.545919 165.430312 
Q 462.999669 165.983437 462.999669 166.827187 
Q 462.999669 168.128437 462.135294 168.794062 
Q 461.270919 169.459687 459.572169 169.459687 
Q 457.867794 169.459687 456.997794 168.794062 
Q 456.127794 168.128437 456.127794 166.827187 
Q 456.127794 165.983437 456.581544 165.430312 
Q 457.035294 164.877187 457.925919 164.631562 
z
M 458.452794 162.878437 
Q 458.452794 163.399687 458.743419 163.680937 
Q 459.034044 163.962187 459.572169 163.962187 
Q 460.099044 163.962187 460.385919 163.680937 
Q 460.674669 163.399687 460.674669 162.878437 
Q 460.674669 162.357187 460.385919 162.079687 
Q 460.099044 161.800312 459.572169 161.800312 
Q 459.034044 161.800312 458.743419 162.081562 
Q 458.452794 162.362812 458.452794 162.878437 
z
" style="fill: #1a1a1a"/>
   </g>
   <g id="text_20">
    <path d="M 260.034078 220.521178 
L 262.027203 220.521178 
L 262.027203 214.866178 
L 259.981578 215.288053 
L 259.981578 213.752428 
L 262.014078 213.330553 
L 264.159078 213.330553 
L 264.159078 220.521178 
L 266.152203 220.521178 
L 266.152203 222.079303 
L 260.034078 222.079303 
L 260.034078 220.521178 
z
M 268.383688 220.521178 
L 270.376813 220.521178 
L 270.376813 214.866178 
L 268.331188 215.288053 
L 268.331188 213.752428 
L 270.363688 213.330553 
L 272.508688 213.330553 
L 272.508688 220.521178 
L 274.501813 220.521178 
L 274.501813 222.079303 
L 268.383688 222.079303 
L 268.383688 220.521178 
z
" style="fill: #1a1a1a; stroke: #fafafa; stroke-width: 3"/>
    <path d="M 260.034078 220.521178 
L 262.027203 220.521178 
L 262.027203 214.866178 
L 259.981578 215.288053 
L 259.981578 213.752428 
L 262.014078 213.330553 
L 264.159078 213.330553 
L 264.159078 220.521178 
L 266.152203 220.521178 
L 266.152203 222.079303 
L 260.034078 222.079303 
L 260.034078 220.521178 
z
M 268.383688 220.521178 
L 270.376813 220.521178 
L 270.376813 214.866178 
L 268.331188 215.288053 
L 268.331188 213.752428 
L 270.363688 213.330553 
L 272.508688 213.330553 
L 272.508688 220.521178 
L 274.501813 220.521178 
L 274.501813 222.079303 
L 268.383688 222.079303 
L 268.383688 220.521178 
z
" style="fill: #1a1a1a"/>
   </g>
   <g id="text_21">
    <path d="M 185.461762 267.978918 
L 182.990512 271.640793 
L 185.461762 271.640793 
L 185.461762 267.978918 
z
M 185.086762 266.120793 
L 187.595512 266.120793 
L 187.595512 271.640793 
L 188.842387 271.640793 
L 188.842387 273.275793 
L 187.595512 273.275793 
L 187.595512 274.869543 
L 185.461762 274.869543 
L 185.461762 273.275793 
L 181.584262 273.275793 
L 181.584262 271.342668 
L 185.086762 266.120793 
z
" style="fill: #1a1a1a; stroke: #fafafa; stroke-width: 3"/>
    <path d="M 185.461762 267.978918 
L 182.990512 271.640793 
L 185.461762 271.640793 
L 185.461762 267.978918 
z
M 185.086762 266.120793 
L 187.595512 266.120793 
L 187.595512 271.640793 
L 188.842387 271.640793 
L 188.842387 273.275793 
L 187.595512 273.275793 
L 187.595512 274.869543 
L 185.461762 274.869543 
L 185.461762 273.275793 
L 181.584262 273.275793 
L 181.584262 271.342668 
L 185.086762 266.120793 
z
" style="fill: #1a1a1a"/>
   </g>
   <g id="legend_1">
    <g id="patch_10">
     <path d="M 337.867076 295.617812 
L 522.651138 295.617812 
Q 524.451138 295.617812 524.451138 293.817812 
L 524.451138 255.086875 
Q 524.451138 253.286875 522.651138 253.286875 
L 337.867076 253.286875 
Q 336.067076 253.286875 336.067076 255.086875 
L 336.067076 293.817812 
Q 336.067076 295.617812 337.867076 295.617812 
z
" style="fill: #ffffff; opacity: 0.95; stroke: #dddddd; stroke-linejoin: miter"/>
    </g>
    <g id="patch_11">
     <path d="M 339.667076 263.725469 
L 357.667076 263.725469 
L 357.667076 257.425469 
L 339.667076 257.425469 
z
" style="fill: #3b6ea8; stroke: #ffffff; stroke-linejoin: miter"/>
    </g>
    <g id="text_22">
     <!-- Per-model (cosine top-100/layer) -->
     <g transform="translate(364.867076 263.725469) scale(0.09 -0.09)">
      <defs>
       <path id="DejaVuSans-50" d="M 1259 4147 
L 1259 2394 
L 2053 2394 
Q 2494 2394 2734 2622 
Q 2975 2850 2975 3272 
Q 2975 3691 2734 3919 
Q 2494 4147 2053 4147 
L 1259 4147 
z
M 628 4666 
L 2053 4666 
Q 2838 4666 3239 4311 
Q 3641 3956 3641 3272 
Q 3641 2581 3239 2228 
Q 2838 1875 2053 1875 
L 1259 1875 
L 1259 0 
L 628 0 
L 628 4666 
z
" transform="scale(0.015625)"/>
       <path id="DejaVuSans-2d" d="M 313 2009 
L 1997 2009 
L 1997 1497 
L 313 1497 
L 313 2009 
z
" transform="scale(0.015625)"/>
       <path id="DejaVuSans-2f" d="M 1625 4666 
L 2156 4666 
L 531 -594 
L 0 -594 
L 1625 4666 
z
" transform="scale(0.015625)"/>
      </defs>
      <use xlink:href="#DejaVuSans-50"/>
      <use xlink:href="#DejaVuSans-65" x="56.677734"/>
      <use xlink:href="#DejaVuSans-72" x="118.201172"/>
      <use xlink:href="#DejaVuSans-2d" x="152.939453"/>
      <use xlink:href="#DejaVuSans-6d" x="189.023438"/>
      <use xlink:href="#DejaVuSans-6f" x="286.435547"/>
      <use xlink:href="#DejaVuSans-64" x="347.617188"/>
      <use xlink:href="#DejaVuSans-65" x="411.09375"/>
      <use xlink:href="#DejaVuSans-6c" x="472.617188"/>
      <use xlink:href="#DejaVuSans-20" x="500.400391"/>
      <use xlink:href="#DejaVuSans-28" x="532.1875"/>
      <use xlink:href="#DejaVuSans-63" x="571.201172"/>
      <use xlink:href="#DejaVuSans-6f" x="626.181641"/>
      <use xlink:href="#DejaVuSans-73" x="687.363281"/>
      <use xlink:href="#DejaVuSans-69" x="739.462891"/>
      <use xlink:href="#DejaVuSans-6e" x="767.246094"/>
      <use xlink:href="#DejaVuSans-65" x="830.625"/>
      <use xlink:href="#DejaVuSans-20" x="892.148438"/>
      <use xlink:href="#DejaVuSans-74" x="923.935547"/>
      <use xlink:href="#DejaVuSans-6f" x="963.144531"/>
      <use xlink:href="#DejaVuSans-70" x="1024.326172"/>
      <use xlink:href="#DejaVuSans-2d" x="1087.802734"/>
      <use xlink:href="#DejaVuSans-31" x="1123.886719"/>
      <use xlink:href="#DejaVuSans-30" x="1187.509766"/>
      <use xlink:href="#DejaVuSans-30" x="1251.132812"/>
      <use xlink:href="#DejaVuSans-2f" x="1314.755859"/>
      <use xlink:href="#DejaVuSans-6c" x="1348.447266"/>
      <use xlink:href="#DejaVuSans-61" x="1376.230469"/>
      <use xlink:href="#DejaVuSans-79" x="1437.509766"/>
      <use xlink:href="#DejaVuSans-65" x="1496.689453"/>
      <use xlink:href="#DejaVuSans-72" x="1558.212891"/>
      <use xlink:href="#DejaVuSans-29" x="1599.326172"/>
     </g>
    </g>
    <g id="patch_12">
     <path d="M 339.667076 276.935781 
L 357.667076 276.935781 
L 357.667076 270.635781 
L 339.667076 270.635781 
z
" style="fill: #c9a227; stroke: #ffffff; stroke-linejoin: miter"/>
    </g>
    <g id="text_23">
     <!-- Shared across all three models -->
     <g transform="translate(364.867076 276.935781) scale(0.09 -0.09)">
      <use xlink:href="#DejaVuSans-53"/>
      <use xlink:href="#DejaVuSans-68" x="63.476562"/>
      <use xlink:href="#DejaVuSans-61" x="126.855469"/>
      <use xlink:href="#DejaVuSans-72" x="188.134766"/>
      <use xlink:href="#DejaVuSans-65" x="226.998047"/>
      <use xlink:href="#DejaVuSans-64" x="288.521484"/>
      <use xlink:href="#DejaVuSans-20" x="351.998047"/>
      <use xlink:href="#DejaVuSans-61" x="383.785156"/>
      <use xlink:href="#DejaVuSans-63" x="445.064453"/>
      <use xlink:href="#DejaVuSans-72" x="500.044922"/>
      <use xlink:href="#DejaVuSans-6f" x="538.908203"/>
      <use xlink:href="#DejaVuSans-73" x="600.089844"/>
      <use xlink:href="#DejaVuSans-73" x="652.189453"/>
      <use xlink:href="#DejaVuSans-20" x="704.289062"/>
      <use xlink:href="#DejaVuSans-61" x="736.076172"/>
      <use xlink:href="#DejaVuSans-6c" x="797.355469"/>
      <use xlink:href="#DejaVuSans-6c" x="825.138672"/>
      <use xlink:href="#DejaVuSans-20" x="852.921875"/>
      <use xlink:href="#DejaVuSans-74" x="884.708984"/>
      <use xlink:href="#DejaVuSans-68" x="923.917969"/>
      <use xlink:href="#DejaVuSans-72" x="987.296875"/>
      <use xlink:href="#DejaVuSans-65" x="1026.160156"/>
      <use xlink:href="#DejaVuSans-65" x="1087.683594"/>
      <use xlink:href="#DejaVuSans-20" x="1149.207031"/>
      <use xlink:href="#DejaVuSans-6d" x="1180.994141"/>
      <use xlink:href="#DejaVuSans-6f" x="1278.40625"/>
      <use xlink:href="#DejaVuSans-64" x="1339.587891"/>
      <use xlink:href="#DejaVuSans-65" x="1403.064453"/>
      <use xlink:href="#DejaVuSans-6c" x="1464.587891"/>
      <use xlink:href="#DejaVuSans-73" x="1492.371094"/>
     </g>
    </g>
    <g id="patch_13">
     <path d="M 339.667076 290.146094 
L 357.667076 290.146094 
L 357.667076 283.846094 
L 339.667076 283.846094 
z
" style="fill: #b85c4a; stroke: #ffffff; stroke-linejoin: miter"/>
    </g>
    <g id="text_24">
     <!-- SAE activation delta (bad medical) -->
     <g transform="translate(364.867076 290.146094) scale(0.09 -0.09)">
      <use xlink:href="#DejaVuSans-53"/>
      <use xlink:href="#DejaVuSans-41" x="65.351562"/>
      <use xlink:href="#DejaVuSans-45" x="133.759766"/>
      <use xlink:href="#DejaVuSans-20" x="196.943359"/>
      <use xlink:href="#DejaVuSans-61" x="228.730469"/>
      <use xlink:href="#DejaVuSans-63" x="290.009766"/>
      <use xlink:href="#DejaVuSans-74" x="344.990234"/>
      <use xlink:href="#DejaVuSans-69" x="384.199219"/>
      <use xlink:href="#DejaVuSans-76" x="411.982422"/>
      <use xlink:href="#DejaVuSans-61" x="471.162109"/>
      <use xlink:href="#DejaVuSans-74" x="532.441406"/>
      <use xlink:href="#DejaVuSans-69" x="571.650391"/>
      <use xlink:href="#DejaVuSans-6f" x="599.433594"/>
      <use xlink:href="#DejaVuSans-6e" x="660.615234"/>
      <use xlink:href="#DejaVuSans-20" x="723.994141"/>
      <use xlink:href="#DejaVuSans-64" x="755.78125"/>
      <use xlink:href="#DejaVuSans-65" x="819.257812"/>
      <use xlink:href="#DejaVuSans-6c" x="880.78125"/>
      <use xlink:href="#DejaVuSans-74" x="908.564453"/>
      <use xlink:href="#DejaVuSans-61" x="947.773438"/>
      <use xlink:href="#DejaVuSans-20" x="1009.052734"/>
      <use xlink:href="#DejaVuSans-28" x="1040.839844"/>
      <use xlink:href="#DejaVuSans-62" x="1079.853516"/>
      <use xlink:href="#DejaVuSans-61" x="1143.330078"/>
      <use xlink:href="#DejaVuSans-64" x="1204.609375"/>
      <use xlink:href="#DejaVuSans-20" x="1268.085938"/>
      <use xlink:href="#DejaVuSans-6d" x="1299.873047"/>
      <use xlink:href="#DejaVuSans-65" x="1397.285156"/>
      <use xlink:href="#DejaVuSans-64" x="1458.808594"/>
      <use xlink:href="#DejaVuSans-69" x="1522.285156"/>
      <use xlink:href="#DejaVuSans-63" x="1550.068359"/>
      <use xlink:href="#DejaVuSans-61" x="1605.048828"/>
      <use xlink:href="#DejaVuSans-6c" x="1666.328125"/>
      <use xlink:href="#DejaVuSans-29" x="1694.111328"/>
     </g>
    </g>
   </g>
  </g>
  <g id="text_25">
   <!-- Per-model counts overlap; 35 is the deduplicated union across the three cosine-ranked pools. -->
   <g style="fill: #666666" transform="translate(120.805898 362.309812) scale(0.085 -0.085)">
    <defs>
     <path id="DejaVuSans-3b" d="M 750 3309 
L 1409 3309 
L 1409 2516 
L 750 2516 
L 750 3309 
z
M 750 794 
L 1409 794 
L 1409 256 
L 897 -744 
L 494 -744 
L 750 256 
L 750 794 
z
" transform="scale(0.015625)"/>
     <path id="DejaVuSans-2e" d="M 684 794 
L 1344 794 
L 1344 0 
L 684 0 
L 684 794 
z
" transform="scale(0.015625)"/>
    </defs>
    <use xlink:href="#DejaVuSans-50"/>
    <use xlink:href="#DejaVuSans-65" x="56.677734"/>
    <use xlink:href="#DejaVuSans-72" x="118.201172"/>
    <use xlink:href="#DejaVuSans-2d" x="152.939453"/>
    <use xlink:href="#DejaVuSans-6d" x="189.023438"/>
    <use xlink:href="#DejaVuSans-6f" x="286.435547"/>
    <use xlink:href="#DejaVuSans-64" x="347.617188"/>
    <use xlink:href="#DejaVuSans-65" x="411.09375"/>
    <use xlink:href="#DejaVuSans-6c" x="472.617188"/>
    <use xlink:href="#DejaVuSans-20" x="500.400391"/>
    <use xlink:href="#DejaVuSans-63" x="532.1875"/>
    <use xlink:href="#DejaVuSans-6f" x="587.167969"/>
    <use xlink:href="#DejaVuSans-75" x="648.349609"/>
    <use xlink:href="#DejaVuSans-6e" x="711.728516"/>
    <use xlink:href="#DejaVuSans-74" x="775.107422"/>
    <use xlink:href="#DejaVuSans-73" x="814.316406"/>
    <use xlink:href="#DejaVuSans-20" x="866.416016"/>
    <use xlink:href="#DejaVuSans-6f" x="898.203125"/>
    <use xlink:href="#DejaVuSans-76" x="959.384766"/>
    <use xlink:href="#DejaVuSans-65" x="1018.564453"/>
    <use xlink:href="#DejaVuSans-72" x="1080.087891"/>
    <use xlink:href="#DejaVuSans-6c" x="1121.201172"/>
    <use xlink:href="#DejaVuSans-61" x="1148.984375"/>
    <use xlink:href="#DejaVuSans-70" x="1210.263672"/>
    <use xlink:href="#DejaVuSans-3b" x="1273.740234"/>
    <use xlink:href="#DejaVuSans-20" x="1307.431641"/>
    <use xlink:href="#DejaVuSans-33" x="1339.21875"/>
    <use xlink:href="#DejaVuSans-35" x="1402.841797"/>
    <use xlink:href="#DejaVuSans-20" x="1466.464844"/>
    <use xlink:href="#DejaVuSans-69" x="1498.251953"/>
    <use xlink:href="#DejaVuSans-73" x="1526.035156"/>
    <use xlink:href="#DejaVuSans-20" x="1578.134766"/>
    <use xlink:href="#DejaVuSans-74" x="1609.921875"/>
    <use xlink:href="#DejaVuSans-68" x="1649.130859"/>
    <use xlink:href="#DejaVuSans-65" x="1712.509766"/>
    <use xlink:href="#DejaVuSans-20" x="1774.033203"/>
    <use xlink:href="#DejaVuSans-64" x="1805.820312"/>
    <use xlink:href="#DejaVuSans-65" x="1869.296875"/>
    <use xlink:href="#DejaVuSans-64" x="1930.820312"/>
    <use xlink:href="#DejaVuSans-75" x="1994.296875"/>
    <use xlink:href="#DejaVuSans-70" x="2057.675781"/>
    <use xlink:href="#DejaVuSans-6c" x="2121.152344"/>
    <use xlink:href="#DejaVuSans-69" x="2148.935547"/>
    <use xlink:href="#DejaVuSans-63" x="2176.71875"/>
    <use xlink:href="#DejaVuSans-61" x="2231.699219"/>
    <use xlink:href="#DejaVuSans-74" x="2292.978516"/>
    <use xlink:href="#DejaVuSans-65" x="2332.1875"/>
    <use xlink:href="#DejaVuSans-64" x="2393.710938"/>
    <use xlink:href="#DejaVuSans-20" x="2457.1875"/>
    <use xlink:href="#DejaVuSans-75" x="2488.974609"/>
    <use xlink:href="#DejaVuSans-6e" x="2552.353516"/>
    <use xlink:href="#DejaVuSans-69" x="2615.732422"/>
    <use xlink:href="#DejaVuSans-6f" x="2643.515625"/>
    <use xlink:href="#DejaVuSans-6e" x="2704.697266"/>
    <use xlink:href="#DejaVuSans-20" x="2768.076172"/>
    <use xlink:href="#DejaVuSans-61" x="2799.863281"/>
    <use xlink:href="#DejaVuSans-63" x="2861.142578"/>
    <use xlink:href="#DejaVuSans-72" x="2916.123047"/>
    <use xlink:href="#DejaVuSans-6f" x="2954.986328"/>
    <use xlink:href="#DejaVuSans-73" x="3016.167969"/>
    <use xlink:href="#DejaVuSans-73" x="3068.267578"/>
    <use xlink:href="#DejaVuSans-20" x="3120.367188"/>
    <use xlink:href="#DejaVuSans-74" x="3152.154297"/>
    <use xlink:href="#DejaVuSans-68" x="3191.363281"/>
    <use xlink:href="#DejaVuSans-65" x="3254.742188"/>
    <use xlink:href="#DejaVuSans-20" x="3316.265625"/>
    <use xlink:href="#DejaVuSans-74" x="3348.052734"/>
    <use xlink:href="#DejaVuSans-68" x="3387.261719"/>
    <use xlink:href="#DejaVuSans-72" x="3450.640625"/>
    <use xlink:href="#DejaVuSans-65" x="3489.503906"/>
    <use xlink:href="#DejaVuSans-65" x="3551.027344"/>
    <use xlink:href="#DejaVuSans-20" x="3612.550781"/>
    <use xlink:href="#DejaVuSans-63" x="3644.337891"/>
    <use xlink:href="#DejaVuSans-6f" x="3699.318359"/>
    <use xlink:href="#DejaVuSans-73" x="3760.5"/>
    <use xlink:href="#DejaVuSans-69" x="3812.599609"/>
    <use xlink:href="#DejaVuSans-6e" x="3840.382812"/>
    <use xlink:href="#DejaVuSans-65" x="3903.761719"/>
    <use xlink:href="#DejaVuSans-2d" x="3965.285156"/>
    <use xlink:href="#DejaVuSans-72" x="4001.369141"/>
    <use xlink:href="#DejaVuSans-61" x="4042.482422"/>
    <use xlink:href="#DejaVuSans-6e" x="4103.761719"/>
    <use xlink:href="#DejaVuSans-6b" x="4167.140625"/>
    <use xlink:href="#DejaVuSans-65" x="4221.425781"/>
    <use xlink:href="#DejaVuSans-64" x="4282.949219"/>
    <use xlink:href="#DejaVuSans-20" x="4346.425781"/>
    <use xlink:href="#DejaVuSans-70" x="4378.212891"/>
    <use xlink:href="#DejaVuSans-6f" x="4441.689453"/>
    <use xlink:href="#DejaVuSans-6f" x="4502.871094"/>
    <use xlink:href="#DejaVuSans-6c" x="4564.052734"/>
    <use xlink:href="#DejaVuSans-73" x="4591.835938"/>
    <use xlink:href="#DejaVuSans-2e" x="4643.935547"/>
   </g>
  </g>
 </g>
 <defs>
  <clipPath id="p5a41b2b87e">
   <rect x="131.723281" y="31.837812" width="397.227857" height="268.28"/>
  </clipPath>
 </defs>
</svg>
